<mxfile host="app.diagrams.net" agent="Mozilla/5.0 (Macintosh; Intel Mac OS X 10_15_7) AppleWebKit/537.36 (KHTML, like Gecko) Chrome/131.0.0.0 Safari/537.36" version="25.0.0" pages="13">
  <diagram id="C5RBs43oDa-KdzZeNtuy" name="Page-1">
    <mxGraphModel dx="866" dy="573" grid="0" gridSize="10" guides="1" tooltips="1" connect="1" arrows="1" fold="1" page="1" pageScale="1" pageWidth="827" pageHeight="1169" background="none" math="0" shadow="0">
      <root>
        <mxCell id="WIyWlLk6GJQsqaUBKTNV-0" />
        <mxCell id="WIyWlLk6GJQsqaUBKTNV-1" parent="WIyWlLk6GJQsqaUBKTNV-0" />
        <mxCell id="RrFeCqN-oyF1bnDBhjDP-2" value="Load Dataset" style="whiteSpace=wrap;strokeWidth=2;fixDash=0;rounded=1;labelBackgroundColor=none;fillColor=#d5e8d4;strokeColor=#82b366;fontSize=15;" parent="WIyWlLk6GJQsqaUBKTNV-1" vertex="1">
          <mxGeometry x="261.5" y="883" width="108" height="34" as="geometry" />
        </mxCell>
        <mxCell id="RrFeCqN-oyF1bnDBhjDP-3" value="Data Preprocessing&#xa;and ESM2-embedding" style="whiteSpace=wrap;strokeWidth=2;fixDash=0;rounded=1;labelBackgroundColor=none;fillColor=#e1d5e7;strokeColor=#9673a6;fontSize=15;" parent="WIyWlLk6GJQsqaUBKTNV-1" vertex="1">
          <mxGeometry x="227.25" y="952" width="176.5" height="49" as="geometry" />
        </mxCell>
        <mxCell id="RrFeCqN-oyF1bnDBhjDP-6" value="Select Training Model" style="whiteSpace=wrap;strokeWidth=2;fixDash=0;labelBackgroundColor=none;fillColor=#FAE5C7;strokeColor=#0F8B8D;fontColor=#143642;fontSize=15;" parent="WIyWlLk6GJQsqaUBKTNV-1" vertex="1">
          <mxGeometry x="244" y="1040" width="144" height="44" as="geometry" />
        </mxCell>
        <mxCell id="RrFeCqN-oyF1bnDBhjDP-10" value="Is Adversarial Training?" style="rhombus;strokeWidth=2;whiteSpace=wrap;fixDash=0;labelBackgroundColor=none;fillColor=#FAE5C7;strokeColor=#0F8B8D;fontColor=#143642;fontSize=15;" parent="WIyWlLk6GJQsqaUBKTNV-1" vertex="1">
          <mxGeometry x="211" y="1153" width="210" height="75" as="geometry" />
        </mxCell>
        <mxCell id="RrFeCqN-oyF1bnDBhjDP-11" value="Conduct Adversarial Training" style="whiteSpace=wrap;strokeWidth=2;fixDash=0;labelBackgroundColor=none;fillColor=#dae8fc;strokeColor=#6c8ebf;fontSize=15;" parent="WIyWlLk6GJQsqaUBKTNV-1" vertex="1">
          <mxGeometry x="82" y="1251" width="219" height="34" as="geometry" />
        </mxCell>
        <mxCell id="RrFeCqN-oyF1bnDBhjDP-12" value="Conduct Standard Training" style="whiteSpace=wrap;strokeWidth=2;fixDash=0;labelBackgroundColor=none;fillColor=#f5f5f5;strokeColor=#666666;fontColor=#333333;fontSize=15;" parent="WIyWlLk6GJQsqaUBKTNV-1" vertex="1">
          <mxGeometry x="351" y="1251" width="204" height="34" as="geometry" />
        </mxCell>
        <mxCell id="RrFeCqN-oyF1bnDBhjDP-13" value="Save Model Parameters" style="whiteSpace=wrap;strokeWidth=2;fixDash=0;labelBackgroundColor=none;fillColor=#e1d5e7;strokeColor=#9673a6;fillStyle=solid;fontSize=15;" parent="WIyWlLk6GJQsqaUBKTNV-1" vertex="1">
          <mxGeometry x="231" y="1335" width="181" height="34" as="geometry" />
        </mxCell>
        <mxCell id="RrFeCqN-oyF1bnDBhjDP-14" value="Cross-Validation" style="whiteSpace=wrap;strokeWidth=2;fixDash=0;labelBackgroundColor=none;fillStyle=solid;fillColor=#d5e8d4;strokeColor=#82b366;fontSize=15;" parent="WIyWlLk6GJQsqaUBKTNV-1" vertex="1">
          <mxGeometry x="261.5" y="1395" width="120" height="34" as="geometry" />
        </mxCell>
        <mxCell id="RrFeCqN-oyF1bnDBhjDP-15" value="Model testing" style="whiteSpace=wrap;strokeWidth=2;fixDash=0;labelBackgroundColor=none;fillColor=#fff2cc;strokeColor=#d6b656;fontSize=15;" parent="WIyWlLk6GJQsqaUBKTNV-1" vertex="1">
          <mxGeometry x="263.5" y="1457" width="116" height="34" as="geometry" />
        </mxCell>
        <mxCell id="RrFeCqN-oyF1bnDBhjDP-16" value="Output Results" style="whiteSpace=wrap;strokeWidth=2;fixDash=0;labelBackgroundColor=none;fillColor=#f8cecc;strokeColor=#b85450;fontSize=15;" parent="WIyWlLk6GJQsqaUBKTNV-1" vertex="1">
          <mxGeometry x="261.5" y="1519" width="120" height="34" as="geometry" />
        </mxCell>
        <mxCell id="RrFeCqN-oyF1bnDBhjDP-20" value="" style="curved=1;startArrow=none;endArrow=block;exitX=0.5;exitY=0.99;entryX=0.5;entryY=-0.01;rounded=0;fontSize=15;startSize=8;endSize=8;fixDash=0;labelBackgroundColor=none;strokeColor=#A8201A;fontColor=default;" parent="WIyWlLk6GJQsqaUBKTNV-1" source="RrFeCqN-oyF1bnDBhjDP-2" target="RrFeCqN-oyF1bnDBhjDP-3" edge="1">
          <mxGeometry relative="1" as="geometry">
            <Array as="points" />
          </mxGeometry>
        </mxCell>
        <mxCell id="RrFeCqN-oyF1bnDBhjDP-23" value="" style="curved=1;startArrow=none;endArrow=block;exitX=0.5;exitY=0.97;entryX=0.5;entryY=0;rounded=0;fontSize=15;startSize=8;endSize=8;fixDash=0;labelBackgroundColor=none;strokeColor=#A8201A;fontColor=default;" parent="WIyWlLk6GJQsqaUBKTNV-1" target="RrFeCqN-oyF1bnDBhjDP-6" edge="1">
          <mxGeometry relative="1" as="geometry">
            <Array as="points" />
            <mxPoint x="315.5" y="1001" as="sourcePoint" />
          </mxGeometry>
        </mxCell>
        <mxCell id="RrFeCqN-oyF1bnDBhjDP-24" value="GCN" style="curved=1;startArrow=none;endArrow=block;exitX=0.02;exitY=0.99;entryX=0.181;entryY=0.32;rounded=0;fontSize=15;startSize=8;endSize=8;fixDash=0;entryDx=0;entryDy=0;entryPerimeter=0;labelBackgroundColor=none;strokeColor=#A8201A;fontColor=default;" parent="WIyWlLk6GJQsqaUBKTNV-1" source="RrFeCqN-oyF1bnDBhjDP-6" target="RrFeCqN-oyF1bnDBhjDP-10" edge="1">
          <mxGeometry x="-0.4901" y="21" relative="1" as="geometry">
            <Array as="points">
              <mxPoint x="107" y="1118" />
            </Array>
            <mxPoint x="107" y="1152" as="targetPoint" />
            <mxPoint y="-1" as="offset" />
          </mxGeometry>
        </mxCell>
        <mxCell id="RrFeCqN-oyF1bnDBhjDP-25" value="GAT" style="curved=1;startArrow=none;endArrow=block;exitX=0.5;exitY=0.99;entryX=0.5;entryY=0;rounded=0;fontSize=15;startSize=8;endSize=8;fixDash=0;labelBackgroundColor=none;strokeColor=#A8201A;fontColor=default;" parent="WIyWlLk6GJQsqaUBKTNV-1" source="RrFeCqN-oyF1bnDBhjDP-6" edge="1">
          <mxGeometry relative="1" as="geometry">
            <Array as="points" />
            <mxPoint x="315.5" y="1152" as="targetPoint" />
          </mxGeometry>
        </mxCell>
        <mxCell id="RrFeCqN-oyF1bnDBhjDP-26" value="SAGE" style="curved=1;startArrow=none;endArrow=block;exitX=0.98;exitY=0.99;rounded=0;fontSize=15;startSize=8;endSize=8;fixDash=0;labelBackgroundColor=none;strokeColor=#A8201A;fontColor=default;" parent="WIyWlLk6GJQsqaUBKTNV-1" edge="1">
          <mxGeometry x="0.1128" y="-5" relative="1" as="geometry">
            <Array as="points">
              <mxPoint x="481" y="1108" />
              <mxPoint x="429.6" y="1166" />
            </Array>
            <mxPoint x="382.1306122448974" y="1084" as="sourcePoint" />
            <mxPoint x="377.9987138263665" y="1176.7138263665595" as="targetPoint" />
            <mxPoint as="offset" />
          </mxGeometry>
        </mxCell>
        <mxCell id="RrFeCqN-oyF1bnDBhjDP-30" value="Yes" style="startArrow=none;endArrow=block;exitX=0.04;exitY=1;entryX=0.5;entryY=0.01;rounded=0;fontSize=15;startSize=8;endSize=8;fixDash=0;labelBackgroundColor=none;strokeColor=#A8201A;fontColor=default;" parent="WIyWlLk6GJQsqaUBKTNV-1" source="RrFeCqN-oyF1bnDBhjDP-10" target="RrFeCqN-oyF1bnDBhjDP-11" edge="1">
          <mxGeometry relative="1" as="geometry" />
        </mxCell>
        <mxCell id="RrFeCqN-oyF1bnDBhjDP-31" value="No" style="startArrow=none;endArrow=block;rounded=0;fontSize=15;fixDash=0;labelBackgroundColor=none;strokeColor=#A8201A;fontColor=default;" parent="WIyWlLk6GJQsqaUBKTNV-1" source="RrFeCqN-oyF1bnDBhjDP-10" edge="1">
          <mxGeometry relative="1" as="geometry">
            <mxPoint x="563.9962886597938" y="1122.9998969072165" as="sourcePoint" />
            <mxPoint x="449" y="1249" as="targetPoint" />
          </mxGeometry>
        </mxCell>
        <mxCell id="RrFeCqN-oyF1bnDBhjDP-32" value="" style="curved=1;startArrow=none;endArrow=block;exitX=0.5;exitY=1;entryX=0.21;entryY=0;rounded=0;fontSize=15;startSize=8;endSize=8;fixDash=0;labelBackgroundColor=none;strokeColor=#A8201A;fontColor=default;" parent="WIyWlLk6GJQsqaUBKTNV-1" source="RrFeCqN-oyF1bnDBhjDP-11" target="RrFeCqN-oyF1bnDBhjDP-13" edge="1">
          <mxGeometry relative="1" as="geometry">
            <Array as="points">
              <mxPoint x="192" y="1310" />
            </Array>
          </mxGeometry>
        </mxCell>
        <mxCell id="RrFeCqN-oyF1bnDBhjDP-33" value="" style="curved=1;startArrow=none;endArrow=block;exitX=0.5;exitY=1;entryX=0.79;entryY=0;rounded=0;fontSize=15;startSize=8;endSize=8;fixDash=0;labelBackgroundColor=none;strokeColor=#A8201A;fontColor=default;" parent="WIyWlLk6GJQsqaUBKTNV-1" source="RrFeCqN-oyF1bnDBhjDP-12" target="RrFeCqN-oyF1bnDBhjDP-13" edge="1">
          <mxGeometry relative="1" as="geometry">
            <Array as="points">
              <mxPoint x="453" y="1310" />
            </Array>
          </mxGeometry>
        </mxCell>
        <mxCell id="RrFeCqN-oyF1bnDBhjDP-34" value="" style="curved=1;startArrow=none;endArrow=block;exitX=0.5;exitY=0.99;entryX=0.5;entryY=0.01;rounded=0;fontSize=15;startSize=8;endSize=8;fixDash=0;labelBackgroundColor=none;strokeColor=#A8201A;fontColor=default;" parent="WIyWlLk6GJQsqaUBKTNV-1" source="RrFeCqN-oyF1bnDBhjDP-13" target="RrFeCqN-oyF1bnDBhjDP-14" edge="1">
          <mxGeometry relative="1" as="geometry">
            <Array as="points" />
          </mxGeometry>
        </mxCell>
        <mxCell id="RrFeCqN-oyF1bnDBhjDP-35" value="" style="curved=1;startArrow=none;endArrow=block;exitX=0.5;exitY=1;entryX=0.5;entryY=0;rounded=0;fontSize=15;startSize=8;endSize=8;fixDash=0;labelBackgroundColor=none;strokeColor=#A8201A;fontColor=default;" parent="WIyWlLk6GJQsqaUBKTNV-1" source="RrFeCqN-oyF1bnDBhjDP-14" target="RrFeCqN-oyF1bnDBhjDP-15" edge="1">
          <mxGeometry relative="1" as="geometry">
            <Array as="points" />
          </mxGeometry>
        </mxCell>
        <mxCell id="RrFeCqN-oyF1bnDBhjDP-36" value="" style="curved=1;startArrow=none;endArrow=block;exitX=0.5;exitY=0.99;entryX=0.5;entryY=0.01;rounded=0;fontSize=15;startSize=8;endSize=8;fixDash=0;labelBackgroundColor=none;strokeColor=#A8201A;fontColor=default;" parent="WIyWlLk6GJQsqaUBKTNV-1" source="RrFeCqN-oyF1bnDBhjDP-15" target="RrFeCqN-oyF1bnDBhjDP-16" edge="1">
          <mxGeometry relative="1" as="geometry">
            <Array as="points" />
          </mxGeometry>
        </mxCell>
        <mxCell id="RrFeCqN-oyF1bnDBhjDP-39" value="CNN Seq2Vec&#xa;LSTM Seq2Vec &#xa;Transformer Embedding" style="whiteSpace=wrap;strokeWidth=2;fixDash=0;rounded=1;labelBackgroundColor=none;fillColor=#e1d5e7;strokeColor=#9673a6;fontSize=15;" parent="WIyWlLk6GJQsqaUBKTNV-1" vertex="1">
          <mxGeometry x="438" y="952" width="176.5" height="84" as="geometry" />
        </mxCell>
        <mxCell id="RrFeCqN-oyF1bnDBhjDP-40" value="" style="curved=1;startArrow=none;endArrow=block;exitX=1;exitY=0.75;rounded=0;fontSize=15;startSize=8;endSize=8;fixDash=0;labelBackgroundColor=none;strokeColor=#A8201A;fontColor=default;exitDx=0;exitDy=0;entryX=0;entryY=0;entryDx=0;entryDy=0;" parent="WIyWlLk6GJQsqaUBKTNV-1" source="RrFeCqN-oyF1bnDBhjDP-2" target="RrFeCqN-oyF1bnDBhjDP-39" edge="1">
          <mxGeometry relative="1" as="geometry">
            <Array as="points" />
            <mxPoint x="326" y="927" as="sourcePoint" />
            <mxPoint x="517" y="947" as="targetPoint" />
          </mxGeometry>
        </mxCell>
        <mxCell id="RrFeCqN-oyF1bnDBhjDP-41" value="" style="curved=1;startArrow=none;endArrow=block;rounded=0;fontSize=15;startSize=8;endSize=8;fixDash=0;labelBackgroundColor=none;strokeColor=#A8201A;fontColor=default;entryX=0.5;entryY=0;entryDx=0;entryDy=0;" parent="WIyWlLk6GJQsqaUBKTNV-1" target="RrFeCqN-oyF1bnDBhjDP-12" edge="1">
          <mxGeometry relative="1" as="geometry">
            <Array as="points" />
            <mxPoint x="529" y="1037" as="sourcePoint" />
            <mxPoint x="448" y="962" as="targetPoint" />
          </mxGeometry>
        </mxCell>
        <mxCell id="g8AHkWrUsfdR1bDIR4bH-0" value="Load Dataset" style="whiteSpace=wrap;strokeWidth=2;fixDash=0;rounded=1;labelBackgroundColor=none;fillColor=#d5e8d4;strokeColor=#82b366;fontSize=15;" parent="WIyWlLk6GJQsqaUBKTNV-1" vertex="1">
          <mxGeometry x="261.5" y="883" width="108" height="34" as="geometry" />
        </mxCell>
        <mxCell id="g8AHkWrUsfdR1bDIR4bH-1" value="Data Preprocessing&#xa;and ESM2-embedding" style="whiteSpace=wrap;strokeWidth=2;fixDash=0;rounded=1;labelBackgroundColor=none;fillColor=#e1d5e7;strokeColor=#9673a6;fontSize=15;" parent="WIyWlLk6GJQsqaUBKTNV-1" vertex="1">
          <mxGeometry x="227.25" y="952" width="176.5" height="49" as="geometry" />
        </mxCell>
        <mxCell id="g8AHkWrUsfdR1bDIR4bH-2" value="Select Training Model" style="whiteSpace=wrap;strokeWidth=2;fixDash=0;labelBackgroundColor=none;fillColor=#FAE5C7;strokeColor=#0F8B8D;fontColor=#143642;fontSize=15;" parent="WIyWlLk6GJQsqaUBKTNV-1" vertex="1">
          <mxGeometry x="244" y="1040" width="144" height="44" as="geometry" />
        </mxCell>
        <mxCell id="g8AHkWrUsfdR1bDIR4bH-3" value="Is Adversarial Training?" style="rhombus;strokeWidth=2;whiteSpace=wrap;fixDash=0;labelBackgroundColor=none;fillColor=#FAE5C7;strokeColor=#0F8B8D;fontColor=#143642;fontSize=15;" parent="WIyWlLk6GJQsqaUBKTNV-1" vertex="1">
          <mxGeometry x="211" y="1153" width="210" height="75" as="geometry" />
        </mxCell>
        <mxCell id="g8AHkWrUsfdR1bDIR4bH-4" value="Conduct Adversarial Training" style="whiteSpace=wrap;strokeWidth=2;fixDash=0;labelBackgroundColor=none;fillColor=#dae8fc;strokeColor=#6c8ebf;fontSize=15;" parent="WIyWlLk6GJQsqaUBKTNV-1" vertex="1">
          <mxGeometry x="82" y="1251" width="219" height="34" as="geometry" />
        </mxCell>
        <mxCell id="g8AHkWrUsfdR1bDIR4bH-5" value="Conduct Standard Training" style="whiteSpace=wrap;strokeWidth=2;fixDash=0;labelBackgroundColor=none;fillColor=#f5f5f5;strokeColor=#666666;fontColor=#333333;fontSize=15;" parent="WIyWlLk6GJQsqaUBKTNV-1" vertex="1">
          <mxGeometry x="351" y="1251" width="204" height="34" as="geometry" />
        </mxCell>
        <mxCell id="g8AHkWrUsfdR1bDIR4bH-6" value="Save Model Parameters" style="whiteSpace=wrap;strokeWidth=2;fixDash=0;labelBackgroundColor=none;fillColor=#e1d5e7;strokeColor=#9673a6;fillStyle=solid;fontSize=15;" parent="WIyWlLk6GJQsqaUBKTNV-1" vertex="1">
          <mxGeometry x="231" y="1335" width="181" height="34" as="geometry" />
        </mxCell>
        <mxCell id="g8AHkWrUsfdR1bDIR4bH-7" value="Cross-Validation" style="whiteSpace=wrap;strokeWidth=2;fixDash=0;labelBackgroundColor=none;fillStyle=solid;fillColor=#d5e8d4;strokeColor=#82b366;fontSize=15;" parent="WIyWlLk6GJQsqaUBKTNV-1" vertex="1">
          <mxGeometry x="261.5" y="1395" width="120" height="34" as="geometry" />
        </mxCell>
        <mxCell id="g8AHkWrUsfdR1bDIR4bH-8" value="Model testing" style="whiteSpace=wrap;strokeWidth=2;fixDash=0;labelBackgroundColor=none;fillColor=#fff2cc;strokeColor=#d6b656;fontSize=15;" parent="WIyWlLk6GJQsqaUBKTNV-1" vertex="1">
          <mxGeometry x="263.5" y="1457" width="116" height="34" as="geometry" />
        </mxCell>
        <mxCell id="g8AHkWrUsfdR1bDIR4bH-9" value="Output Results" style="whiteSpace=wrap;strokeWidth=2;fixDash=0;labelBackgroundColor=none;fillColor=#f8cecc;strokeColor=#b85450;fontSize=15;" parent="WIyWlLk6GJQsqaUBKTNV-1" vertex="1">
          <mxGeometry x="261.5" y="1519" width="120" height="34" as="geometry" />
        </mxCell>
        <mxCell id="g8AHkWrUsfdR1bDIR4bH-10" value="" style="curved=1;startArrow=none;endArrow=block;exitX=0.5;exitY=0.99;entryX=0.5;entryY=-0.01;rounded=0;fontSize=15;startSize=8;endSize=8;fixDash=0;labelBackgroundColor=none;strokeColor=#A8201A;fontColor=default;" parent="WIyWlLk6GJQsqaUBKTNV-1" source="g8AHkWrUsfdR1bDIR4bH-0" target="g8AHkWrUsfdR1bDIR4bH-1" edge="1">
          <mxGeometry relative="1" as="geometry">
            <Array as="points" />
          </mxGeometry>
        </mxCell>
        <mxCell id="g8AHkWrUsfdR1bDIR4bH-11" value="" style="curved=1;startArrow=none;endArrow=block;exitX=0.5;exitY=0.97;entryX=0.5;entryY=0;rounded=0;fontSize=15;startSize=8;endSize=8;fixDash=0;labelBackgroundColor=none;strokeColor=#A8201A;fontColor=default;" parent="WIyWlLk6GJQsqaUBKTNV-1" target="g8AHkWrUsfdR1bDIR4bH-2" edge="1">
          <mxGeometry relative="1" as="geometry">
            <Array as="points" />
            <mxPoint x="315.5" y="1001" as="sourcePoint" />
          </mxGeometry>
        </mxCell>
        <mxCell id="g8AHkWrUsfdR1bDIR4bH-12" value="GCN" style="curved=1;startArrow=none;endArrow=block;exitX=0.02;exitY=0.99;entryX=0.181;entryY=0.32;rounded=0;fontSize=15;startSize=8;endSize=8;fixDash=0;entryDx=0;entryDy=0;entryPerimeter=0;labelBackgroundColor=none;strokeColor=#A8201A;fontColor=default;" parent="WIyWlLk6GJQsqaUBKTNV-1" source="g8AHkWrUsfdR1bDIR4bH-2" target="g8AHkWrUsfdR1bDIR4bH-3" edge="1">
          <mxGeometry x="-0.4901" y="21" relative="1" as="geometry">
            <Array as="points">
              <mxPoint x="107" y="1118" />
            </Array>
            <mxPoint x="107" y="1152" as="targetPoint" />
            <mxPoint y="-1" as="offset" />
          </mxGeometry>
        </mxCell>
        <mxCell id="g8AHkWrUsfdR1bDIR4bH-13" value="GAT" style="curved=1;startArrow=none;endArrow=block;exitX=0.5;exitY=0.99;entryX=0.5;entryY=0;rounded=0;fontSize=15;startSize=8;endSize=8;fixDash=0;labelBackgroundColor=none;strokeColor=#A8201A;fontColor=default;" parent="WIyWlLk6GJQsqaUBKTNV-1" source="g8AHkWrUsfdR1bDIR4bH-2" edge="1">
          <mxGeometry relative="1" as="geometry">
            <Array as="points" />
            <mxPoint x="315.5" y="1152" as="targetPoint" />
          </mxGeometry>
        </mxCell>
        <mxCell id="g8AHkWrUsfdR1bDIR4bH-14" value="SAGE" style="curved=1;startArrow=none;endArrow=block;exitX=0.98;exitY=0.99;rounded=0;fontSize=15;startSize=8;endSize=8;fixDash=0;labelBackgroundColor=none;strokeColor=#A8201A;fontColor=default;" parent="WIyWlLk6GJQsqaUBKTNV-1" edge="1">
          <mxGeometry x="0.1128" y="-5" relative="1" as="geometry">
            <Array as="points">
              <mxPoint x="481" y="1108" />
              <mxPoint x="429.6" y="1166" />
            </Array>
            <mxPoint x="382.1306122448974" y="1084" as="sourcePoint" />
            <mxPoint x="377.9987138263665" y="1176.7138263665595" as="targetPoint" />
            <mxPoint as="offset" />
          </mxGeometry>
        </mxCell>
        <mxCell id="g8AHkWrUsfdR1bDIR4bH-15" value="Yes" style="startArrow=none;endArrow=block;exitX=0.04;exitY=1;entryX=0.5;entryY=0.01;rounded=0;fontSize=15;startSize=8;endSize=8;fixDash=0;labelBackgroundColor=none;strokeColor=#A8201A;fontColor=default;" parent="WIyWlLk6GJQsqaUBKTNV-1" source="g8AHkWrUsfdR1bDIR4bH-3" target="g8AHkWrUsfdR1bDIR4bH-4" edge="1">
          <mxGeometry relative="1" as="geometry" />
        </mxCell>
        <mxCell id="g8AHkWrUsfdR1bDIR4bH-16" value="No" style="startArrow=none;endArrow=block;rounded=0;fontSize=15;fixDash=0;labelBackgroundColor=none;strokeColor=#A8201A;fontColor=default;" parent="WIyWlLk6GJQsqaUBKTNV-1" source="g8AHkWrUsfdR1bDIR4bH-3" edge="1">
          <mxGeometry relative="1" as="geometry">
            <mxPoint x="563.9962886597938" y="1122.9998969072165" as="sourcePoint" />
            <mxPoint x="449" y="1249" as="targetPoint" />
          </mxGeometry>
        </mxCell>
        <mxCell id="g8AHkWrUsfdR1bDIR4bH-17" value="" style="curved=1;startArrow=none;endArrow=block;exitX=0.5;exitY=1;entryX=0.21;entryY=0;rounded=0;fontSize=15;startSize=8;endSize=8;fixDash=0;labelBackgroundColor=none;strokeColor=#A8201A;fontColor=default;" parent="WIyWlLk6GJQsqaUBKTNV-1" source="g8AHkWrUsfdR1bDIR4bH-4" target="g8AHkWrUsfdR1bDIR4bH-6" edge="1">
          <mxGeometry relative="1" as="geometry">
            <Array as="points">
              <mxPoint x="192" y="1310" />
            </Array>
          </mxGeometry>
        </mxCell>
        <mxCell id="g8AHkWrUsfdR1bDIR4bH-18" value="" style="curved=1;startArrow=none;endArrow=block;exitX=0.5;exitY=1;entryX=0.79;entryY=0;rounded=0;fontSize=15;startSize=8;endSize=8;fixDash=0;labelBackgroundColor=none;strokeColor=#A8201A;fontColor=default;" parent="WIyWlLk6GJQsqaUBKTNV-1" source="g8AHkWrUsfdR1bDIR4bH-5" target="g8AHkWrUsfdR1bDIR4bH-6" edge="1">
          <mxGeometry relative="1" as="geometry">
            <Array as="points">
              <mxPoint x="453" y="1310" />
            </Array>
          </mxGeometry>
        </mxCell>
        <mxCell id="g8AHkWrUsfdR1bDIR4bH-19" value="" style="curved=1;startArrow=none;endArrow=block;exitX=0.5;exitY=0.99;entryX=0.5;entryY=0.01;rounded=0;fontSize=15;startSize=8;endSize=8;fixDash=0;labelBackgroundColor=none;strokeColor=#A8201A;fontColor=default;" parent="WIyWlLk6GJQsqaUBKTNV-1" source="g8AHkWrUsfdR1bDIR4bH-6" target="g8AHkWrUsfdR1bDIR4bH-7" edge="1">
          <mxGeometry relative="1" as="geometry">
            <Array as="points" />
          </mxGeometry>
        </mxCell>
        <mxCell id="g8AHkWrUsfdR1bDIR4bH-20" value="" style="curved=1;startArrow=none;endArrow=block;exitX=0.5;exitY=1;entryX=0.5;entryY=0;rounded=0;fontSize=15;startSize=8;endSize=8;fixDash=0;labelBackgroundColor=none;strokeColor=#A8201A;fontColor=default;" parent="WIyWlLk6GJQsqaUBKTNV-1" source="g8AHkWrUsfdR1bDIR4bH-7" target="g8AHkWrUsfdR1bDIR4bH-8" edge="1">
          <mxGeometry relative="1" as="geometry">
            <Array as="points" />
          </mxGeometry>
        </mxCell>
        <mxCell id="g8AHkWrUsfdR1bDIR4bH-21" value="" style="curved=1;startArrow=none;endArrow=block;exitX=0.5;exitY=0.99;entryX=0.5;entryY=0.01;rounded=0;fontSize=15;startSize=8;endSize=8;fixDash=0;labelBackgroundColor=none;strokeColor=#A8201A;fontColor=default;" parent="WIyWlLk6GJQsqaUBKTNV-1" source="g8AHkWrUsfdR1bDIR4bH-8" target="g8AHkWrUsfdR1bDIR4bH-9" edge="1">
          <mxGeometry relative="1" as="geometry">
            <Array as="points" />
          </mxGeometry>
        </mxCell>
        <mxCell id="g8AHkWrUsfdR1bDIR4bH-22" value="CNN Seq2Vec&#xa;LSTM Seq2Vec &#xa;Transformer Embedding" style="whiteSpace=wrap;strokeWidth=2;fixDash=0;rounded=1;labelBackgroundColor=none;fillColor=#e1d5e7;strokeColor=#9673a6;fontSize=15;" parent="WIyWlLk6GJQsqaUBKTNV-1" vertex="1">
          <mxGeometry x="438" y="952" width="176.5" height="84" as="geometry" />
        </mxCell>
        <mxCell id="g8AHkWrUsfdR1bDIR4bH-23" value="" style="curved=1;startArrow=none;endArrow=block;exitX=1;exitY=0.75;rounded=0;fontSize=15;startSize=8;endSize=8;fixDash=0;labelBackgroundColor=none;strokeColor=#A8201A;fontColor=default;exitDx=0;exitDy=0;entryX=0;entryY=0;entryDx=0;entryDy=0;" parent="WIyWlLk6GJQsqaUBKTNV-1" source="g8AHkWrUsfdR1bDIR4bH-0" target="g8AHkWrUsfdR1bDIR4bH-22" edge="1">
          <mxGeometry relative="1" as="geometry">
            <Array as="points" />
            <mxPoint x="326" y="927" as="sourcePoint" />
            <mxPoint x="517" y="947" as="targetPoint" />
          </mxGeometry>
        </mxCell>
        <mxCell id="g8AHkWrUsfdR1bDIR4bH-24" value="" style="curved=1;startArrow=none;endArrow=block;rounded=0;fontSize=15;startSize=8;endSize=8;fixDash=0;labelBackgroundColor=none;strokeColor=#A8201A;fontColor=default;entryX=0.5;entryY=0;entryDx=0;entryDy=0;" parent="WIyWlLk6GJQsqaUBKTNV-1" target="g8AHkWrUsfdR1bDIR4bH-5" edge="1">
          <mxGeometry relative="1" as="geometry">
            <Array as="points" />
            <mxPoint x="529" y="1037" as="sourcePoint" />
            <mxPoint x="448" y="962" as="targetPoint" />
          </mxGeometry>
        </mxCell>
      </root>
    </mxGraphModel>
  </diagram>
  <diagram name="第 1 页" id="h9GYgqklRpyB4M4L_tEV">
    <mxGraphModel dx="866" dy="575" grid="0" gridSize="10" guides="1" tooltips="1" connect="1" arrows="1" fold="1" page="0" pageScale="1" pageWidth="827" pageHeight="1169" math="0" shadow="0">
      <root>
        <mxCell id="0" />
        <mxCell id="1" parent="0" />
        <mxCell id="5XRJW4DYhkJoMQas_Qim-1" value="dsRNA fragment (400nt)" style="whiteSpace=wrap;strokeWidth=2;fillColor=#fad9d5;strokeColor=#ae4132;" vertex="1" parent="1">
          <mxGeometry x="300" y="20" width="126" height="34" as="geometry" />
        </mxCell>
        <mxCell id="5XRJW4DYhkJoMQas_Qim-2" value="Thermodynamic calculation" style="whiteSpace=wrap;strokeWidth=2;fillColor=#b0e3e6;strokeColor=#0e8088;" vertex="1" parent="1">
          <mxGeometry x="21" y="104" width="213" height="34" as="geometry" />
        </mxCell>
        <mxCell id="5XRJW4DYhkJoMQas_Qim-3" value="RNA-FM module" style="whiteSpace=wrap;strokeWidth=2;fillColor=#b1ddf0;strokeColor=#10739e;" vertex="1" parent="1">
          <mxGeometry x="299" y="104" width="127" height="34" as="geometry" />
        </mxCell>
        <mxCell id="5XRJW4DYhkJoMQas_Qim-4" value="Oligo encoder" style="whiteSpace=wrap;strokeWidth=2;fillColor=#bac8d3;strokeColor=#23445d;" vertex="1" parent="1">
          <mxGeometry x="500" y="104" width="114" height="34" as="geometry" />
        </mxCell>
        <mxCell id="5XRJW4DYhkJoMQas_Qim-5" value="Thermodynamic parameters" style="whiteSpace=wrap;strokeWidth=2;fillColor=#fad7ac;strokeColor=#b46504;" vertex="1" parent="1">
          <mxGeometry x="20" y="187" width="216" height="34" as="geometry" />
        </mxCell>
        <mxCell id="5XRJW4DYhkJoMQas_Qim-6" value="RNA-FM embedding" style="whiteSpace=wrap;strokeWidth=2;fillColor=#fad7ac;strokeColor=#b46504;" vertex="1" parent="1">
          <mxGeometry x="286" y="187" width="153" height="34" as="geometry" />
        </mxCell>
        <mxCell id="5XRJW4DYhkJoMQas_Qim-7" value="Oligo embedding" style="whiteSpace=wrap;strokeWidth=2;fillColor=#fad7ac;strokeColor=#b46504;" vertex="1" parent="1">
          <mxGeometry x="489" y="187" width="135" height="34" as="geometry" />
        </mxCell>
        <mxCell id="5XRJW4DYhkJoMQas_Qim-8" value="Concatenation" style="whiteSpace=wrap;strokeWidth=2;fillColor=#e1d5e7;strokeColor=#9673a6;" vertex="1" parent="1">
          <mxGeometry x="303" y="271" width="119" height="34" as="geometry" />
        </mxCell>
        <mxCell id="5XRJW4DYhkJoMQas_Qim-9" value="MLP classifier" style="whiteSpace=wrap;strokeWidth=2;fillColor=#e1d5e7;strokeColor=#9673a6;" vertex="1" parent="1">
          <mxGeometry x="307" y="354" width="112" height="34" as="geometry" />
        </mxCell>
        <mxCell id="5XRJW4DYhkJoMQas_Qim-10" value="Efficacy Prediction" style="whiteSpace=wrap;strokeWidth=2;fillColor=#e1d5e7;strokeColor=#9673a6;" vertex="1" parent="1">
          <mxGeometry x="288" y="438" width="150" height="34" as="geometry" />
        </mxCell>
        <mxCell id="5XRJW4DYhkJoMQas_Qim-11" value="" style="curved=1;startArrow=none;endArrow=block;exitX=0;exitY=0.82;entryX=0.5;entryY=-0.01;rounded=0;fontSize=12;startSize=8;endSize=8;fillColor=#e1d5e7;strokeColor=#7EA6E0;" edge="1" parent="1" source="5XRJW4DYhkJoMQas_Qim-1" target="5XRJW4DYhkJoMQas_Qim-2">
          <mxGeometry relative="1" as="geometry">
            <Array as="points">
              <mxPoint x="128" y="79" />
            </Array>
          </mxGeometry>
        </mxCell>
        <mxCell id="5XRJW4DYhkJoMQas_Qim-12" value="" style="curved=1;startArrow=none;endArrow=block;exitX=0.5;exitY=0.99;entryX=0.5;entryY=-0.01;rounded=0;fontSize=12;startSize=8;endSize=8;fillColor=#e1d5e7;strokeColor=#7EA6E0;" edge="1" parent="1" source="5XRJW4DYhkJoMQas_Qim-1" target="5XRJW4DYhkJoMQas_Qim-3">
          <mxGeometry relative="1" as="geometry">
            <Array as="points" />
          </mxGeometry>
        </mxCell>
        <mxCell id="5XRJW4DYhkJoMQas_Qim-13" value="" style="curved=1;startArrow=none;endArrow=block;exitX=1;exitY=0.89;entryX=0.5;entryY=-0.01;rounded=0;fontSize=12;startSize=8;endSize=8;fillColor=#e1d5e7;strokeColor=#7EA6E0;" edge="1" parent="1" source="5XRJW4DYhkJoMQas_Qim-1" target="5XRJW4DYhkJoMQas_Qim-4">
          <mxGeometry relative="1" as="geometry">
            <Array as="points">
              <mxPoint x="557" y="79" />
            </Array>
          </mxGeometry>
        </mxCell>
        <mxCell id="5XRJW4DYhkJoMQas_Qim-14" value="" style="curved=1;startArrow=none;endArrow=block;exitX=0.5;exitY=0.97;entryX=0.5;entryY=0;rounded=0;fontSize=12;startSize=8;endSize=8;fillColor=#e1d5e7;strokeColor=#9673a6;" edge="1" parent="1" source="5XRJW4DYhkJoMQas_Qim-2" target="5XRJW4DYhkJoMQas_Qim-5">
          <mxGeometry relative="1" as="geometry">
            <Array as="points" />
          </mxGeometry>
        </mxCell>
        <mxCell id="5XRJW4DYhkJoMQas_Qim-15" value="" style="curved=1;startArrow=none;endArrow=block;exitX=0.5;exitY=0.97;entryX=0.5;entryY=0;rounded=0;fontSize=12;startSize=8;endSize=8;fillColor=#e1d5e7;strokeColor=#9673a6;" edge="1" parent="1" source="5XRJW4DYhkJoMQas_Qim-3" target="5XRJW4DYhkJoMQas_Qim-6">
          <mxGeometry relative="1" as="geometry">
            <Array as="points" />
          </mxGeometry>
        </mxCell>
        <mxCell id="5XRJW4DYhkJoMQas_Qim-16" value="" style="curved=1;startArrow=none;endArrow=block;exitX=0.5;exitY=0.97;entryX=0.5;entryY=0;rounded=0;fontSize=12;startSize=8;endSize=8;fillColor=#e1d5e7;strokeColor=#9673a6;" edge="1" parent="1" source="5XRJW4DYhkJoMQas_Qim-4" target="5XRJW4DYhkJoMQas_Qim-7">
          <mxGeometry relative="1" as="geometry">
            <Array as="points" />
          </mxGeometry>
        </mxCell>
        <mxCell id="5XRJW4DYhkJoMQas_Qim-17" value="" style="curved=1;startArrow=none;endArrow=block;exitX=0.5;exitY=0.99;entryX=0;entryY=0.17;rounded=0;fontSize=12;startSize=8;endSize=8;fillColor=#e1d5e7;strokeColor=#9673a6;" edge="1" parent="1" source="5XRJW4DYhkJoMQas_Qim-5" target="5XRJW4DYhkJoMQas_Qim-8">
          <mxGeometry relative="1" as="geometry">
            <Array as="points">
              <mxPoint x="128" y="246" />
            </Array>
          </mxGeometry>
        </mxCell>
        <mxCell id="5XRJW4DYhkJoMQas_Qim-18" value="" style="curved=1;startArrow=none;endArrow=block;exitX=0.5;exitY=0.99;entryX=0.5;entryY=-0.01;rounded=0;fontSize=12;startSize=8;endSize=8;fillColor=#e1d5e7;strokeColor=#9673a6;" edge="1" parent="1" source="5XRJW4DYhkJoMQas_Qim-6" target="5XRJW4DYhkJoMQas_Qim-8">
          <mxGeometry relative="1" as="geometry">
            <Array as="points" />
          </mxGeometry>
        </mxCell>
        <mxCell id="5XRJW4DYhkJoMQas_Qim-19" value="" style="curved=1;startArrow=none;endArrow=block;exitX=0.5;exitY=0.99;entryX=1;entryY=0.1;rounded=0;fontSize=12;startSize=8;endSize=8;fillColor=#e1d5e7;strokeColor=#9673a6;" edge="1" parent="1" source="5XRJW4DYhkJoMQas_Qim-7" target="5XRJW4DYhkJoMQas_Qim-8">
          <mxGeometry relative="1" as="geometry">
            <Array as="points">
              <mxPoint x="557" y="246" />
            </Array>
          </mxGeometry>
        </mxCell>
        <mxCell id="5XRJW4DYhkJoMQas_Qim-20" value="" style="curved=1;startArrow=none;endArrow=block;exitX=0.5;exitY=0.97;entryX=0.5;entryY=0;rounded=0;fontSize=12;startSize=8;endSize=8;fillColor=#e1d5e7;strokeColor=#9673a6;" edge="1" parent="1" source="5XRJW4DYhkJoMQas_Qim-8" target="5XRJW4DYhkJoMQas_Qim-9">
          <mxGeometry relative="1" as="geometry">
            <Array as="points" />
          </mxGeometry>
        </mxCell>
        <mxCell id="5XRJW4DYhkJoMQas_Qim-21" value="" style="curved=1;startArrow=none;endArrow=block;exitX=0.5;exitY=0.99;entryX=0.5;entryY=-0.01;rounded=0;fontSize=12;startSize=8;endSize=8;fillColor=#e1d5e7;strokeColor=#9673a6;" edge="1" parent="1" source="5XRJW4DYhkJoMQas_Qim-9" target="5XRJW4DYhkJoMQas_Qim-10">
          <mxGeometry relative="1" as="geometry">
            <Array as="points" />
          </mxGeometry>
        </mxCell>
      </root>
    </mxGraphModel>
  </diagram>
  <diagram name="第 2 页" id="dYH3rr3fO0gtYmUEhxmj">
    <mxGraphModel dx="866" dy="575" grid="0" gridSize="10" guides="1" tooltips="1" connect="1" arrows="1" fold="1" page="0" pageScale="1" pageWidth="827" pageHeight="1169" math="0" shadow="0">
      <root>
        <mxCell id="0" />
        <mxCell id="1" parent="0" />
        <mxCell id="EYm4772UehAw4xDok6Kb-2" value="输入400nt RNA序列" style="whiteSpace=wrap;strokeWidth=2;shadow=0;fillColor=#b1ddf0;strokeColor=#10739e;fontFamily=Helvetica;fontSize=15;" vertex="1" parent="1">
          <mxGeometry x="139" y="117" width="153" height="34" as="geometry" />
        </mxCell>
        <mxCell id="EYm4772UehAw4xDok6Kb-3" value="序列预处理&#xa;切分成每19nt" style="whiteSpace=wrap;strokeWidth=2;shadow=0;fillColor=#fad7ac;strokeColor=#b46504;fontFamily=Helvetica;fontSize=15;aspect=fixed;" vertex="1" parent="1">
          <mxGeometry x="158.5" y="184" width="115" height="41.2" as="geometry" />
        </mxCell>
        <mxCell id="EYm4772UehAw4xDok6Kb-4" value="热力学计算" style="whiteSpace=wrap;strokeWidth=2;shadow=0;fillColor=#d0cee2;strokeColor=#56517e;fontFamily=Helvetica;fontSize=15;" vertex="1" parent="1">
          <mxGeometry x="20" y="271" width="95" height="34" as="geometry" />
        </mxCell>
        <mxCell id="EYm4772UehAw4xDok6Kb-5" value="RNA-FM模块" style="whiteSpace=wrap;strokeWidth=2;shadow=0;fillColor=#bac8d3;strokeColor=#23445d;fontFamily=Helvetica;fontSize=15;" vertex="1" parent="1">
          <mxGeometry x="165" y="271" width="102" height="34" as="geometry" />
        </mxCell>
        <mxCell id="EYm4772UehAw4xDok6Kb-6" value="Oligo编码器" style="whiteSpace=wrap;strokeWidth=2;shadow=0;fillColor=#fad9d5;strokeColor=#ae4132;fontFamily=Helvetica;fontSize=15;" vertex="1" parent="1">
          <mxGeometry x="317" y="271" width="100" height="34" as="geometry" />
        </mxCell>
        <mxCell id="EYm4772UehAw4xDok6Kb-27" value="" style="edgeStyle=none;curved=1;rounded=0;orthogonalLoop=1;jettySize=auto;html=1;fontSize=12;startSize=8;endSize=8;" edge="1" parent="1" source="EYm4772UehAw4xDok6Kb-7" target="EYm4772UehAw4xDok6Kb-10">
          <mxGeometry relative="1" as="geometry" />
        </mxCell>
        <mxCell id="EYm4772UehAw4xDok6Kb-7" value="MLP特征融合" style="whiteSpace=wrap;strokeWidth=2;shadow=0;fillColor=#D5E8D4;strokeColor=#67AB9F;fontFamily=Helvetica;fontSize=16;" vertex="1" parent="1">
          <mxGeometry x="163.5" y="355" width="105" height="34" as="geometry" />
        </mxCell>
        <mxCell id="EYm4772UehAw4xDok6Kb-8" value="siRNA效率预测" style="whiteSpace=wrap;strokeWidth=2;shadow=0;fontFamily=Helvetica;fontSize=15;fillColor=#dae8fc;strokeColor=#6c8ebf;" vertex="1" parent="1">
          <mxGeometry x="71" y="428" width="119" height="34" as="geometry" />
        </mxCell>
        <mxCell id="EYm4772UehAw4xDok6Kb-9" value="非目标效应分析" style="whiteSpace=wrap;strokeWidth=2;shadow=0;fontFamily=Helvetica;fontSize=15;fillColor=#b0e3e6;strokeColor=#0e8088;" vertex="1" parent="1">
          <mxGeometry x="240" y="428" width="127" height="34" as="geometry" />
        </mxCell>
        <mxCell id="EYm4772UehAw4xDok6Kb-10" value="最终评估" style="whiteSpace=wrap;strokeWidth=2;shadow=0;fontFamily=Helvetica;fontSize=15;fillColor=#f5f5f5;strokeColor=#666666;fontColor=#333333;" vertex="1" parent="1">
          <mxGeometry x="176" y="505" width="79" height="34" as="geometry" />
        </mxCell>
        <mxCell id="EYm4772UehAw4xDok6Kb-11" value="输出siRNA候选序列排名列表" style="whiteSpace=wrap;strokeWidth=2;shadow=0;fillColor=#fff2cc;strokeColor=#d6b656;fontFamily=Helvetica;fontSize=15;" vertex="1" parent="1">
          <mxGeometry x="108" y="567" width="215" height="34" as="geometry" />
        </mxCell>
        <mxCell id="EYm4772UehAw4xDok6Kb-14" value="" style="curved=1;startArrow=none;endArrow=block;exitX=0.5;exitY=0.97;entryX=0.5;entryY=0;rounded=0;fontSize=15;startSize=8;endSize=8;shadow=0;fontFamily=Helvetica;" edge="1" parent="1" source="EYm4772UehAw4xDok6Kb-2" target="EYm4772UehAw4xDok6Kb-3">
          <mxGeometry relative="1" as="geometry">
            <Array as="points" />
          </mxGeometry>
        </mxCell>
        <mxCell id="EYm4772UehAw4xDok6Kb-15" value="" style="curved=0;startArrow=none;endArrow=block;exitX=0;exitY=0.89;entryX=0.5;entryY=-0.01;rounded=0;fontSize=15;startSize=8;endSize=8;shadow=0;fontFamily=Helvetica;" edge="1" parent="1" source="EYm4772UehAw4xDok6Kb-3" target="EYm4772UehAw4xDok6Kb-4">
          <mxGeometry relative="1" as="geometry">
            <Array as="points">
              <mxPoint x="68" y="246" />
            </Array>
          </mxGeometry>
        </mxCell>
        <mxCell id="EYm4772UehAw4xDok6Kb-16" value="" style="curved=0;startArrow=none;endArrow=block;exitX=0.5;exitY=0.99;entryX=0.5;entryY=-0.01;rounded=0;fontSize=15;startSize=8;endSize=8;shadow=0;fontFamily=Helvetica;" edge="1" parent="1" source="EYm4772UehAw4xDok6Kb-3" target="EYm4772UehAw4xDok6Kb-5">
          <mxGeometry relative="1" as="geometry">
            <Array as="points" />
          </mxGeometry>
        </mxCell>
        <mxCell id="EYm4772UehAw4xDok6Kb-17" value="" style="curved=0;startArrow=none;endArrow=block;exitX=1;exitY=0.88;entryX=0.49;entryY=-0.01;rounded=0;fontSize=15;startSize=8;endSize=8;shadow=0;fontFamily=Helvetica;" edge="1" parent="1" source="EYm4772UehAw4xDok6Kb-3" target="EYm4772UehAw4xDok6Kb-6">
          <mxGeometry relative="1" as="geometry">
            <Array as="points">
              <mxPoint x="366" y="246" />
            </Array>
          </mxGeometry>
        </mxCell>
        <mxCell id="EYm4772UehAw4xDok6Kb-18" value="" style="curved=0;startArrow=none;endArrow=block;exitX=0.5;exitY=0.97;entryX=0;entryY=0.17;rounded=0;fontSize=15;startSize=8;endSize=8;shadow=0;fontFamily=Helvetica;" edge="1" parent="1" source="EYm4772UehAw4xDok6Kb-4" target="EYm4772UehAw4xDok6Kb-7">
          <mxGeometry relative="1" as="geometry">
            <Array as="points">
              <mxPoint x="68" y="329" />
            </Array>
          </mxGeometry>
        </mxCell>
        <mxCell id="EYm4772UehAw4xDok6Kb-19" value="" style="curved=0;startArrow=none;endArrow=block;exitX=0.5;exitY=0.97;entryX=0.5;entryY=0;rounded=0;fontSize=15;startSize=8;endSize=8;shadow=0;fontFamily=Helvetica;" edge="1" parent="1" source="EYm4772UehAw4xDok6Kb-5" target="EYm4772UehAw4xDok6Kb-7">
          <mxGeometry relative="1" as="geometry">
            <Array as="points" />
          </mxGeometry>
        </mxCell>
        <mxCell id="EYm4772UehAw4xDok6Kb-20" value="" style="curved=0;startArrow=none;endArrow=block;exitX=0.49;exitY=0.97;entryX=1;entryY=0.17;rounded=0;fontSize=15;startSize=8;endSize=8;shadow=0;fontFamily=Helvetica;" edge="1" parent="1" source="EYm4772UehAw4xDok6Kb-6" target="EYm4772UehAw4xDok6Kb-7">
          <mxGeometry relative="1" as="geometry">
            <Array as="points">
              <mxPoint x="366" y="329" />
            </Array>
          </mxGeometry>
        </mxCell>
        <mxCell id="EYm4772UehAw4xDok6Kb-21" value="" style="curved=0;startArrow=none;endArrow=block;exitX=0.07;exitY=0.99;entryX=0.5;entryY=-0.01;rounded=0;fontSize=15;startSize=8;endSize=8;shadow=0;fontFamily=Helvetica;" edge="1" parent="1" source="EYm4772UehAw4xDok6Kb-7" target="EYm4772UehAw4xDok6Kb-8">
          <mxGeometry relative="1" as="geometry">
            <Array as="points">
              <mxPoint x="130" y="413" />
            </Array>
          </mxGeometry>
        </mxCell>
        <mxCell id="EYm4772UehAw4xDok6Kb-22" value="" style="curved=0;startArrow=none;endArrow=block;exitX=0.95;exitY=0.99;entryX=0.5;entryY=-0.01;rounded=0;fontSize=15;startSize=8;endSize=8;shadow=0;fontFamily=Helvetica;" edge="1" parent="1" source="EYm4772UehAw4xDok6Kb-7" target="EYm4772UehAw4xDok6Kb-9">
          <mxGeometry relative="1" as="geometry">
            <Array as="points">
              <mxPoint x="303" y="413" />
            </Array>
          </mxGeometry>
        </mxCell>
        <mxCell id="EYm4772UehAw4xDok6Kb-23" value="" style="curved=0;startArrow=none;endArrow=block;exitX=0.5;exitY=0.97;entryX=0.07;entryY=0;rounded=0;fontSize=15;startSize=8;endSize=8;shadow=0;fontFamily=Helvetica;" edge="1" parent="1" source="EYm4772UehAw4xDok6Kb-8" target="EYm4772UehAw4xDok6Kb-10">
          <mxGeometry relative="1" as="geometry">
            <Array as="points">
              <mxPoint x="130" y="486" />
            </Array>
          </mxGeometry>
        </mxCell>
        <mxCell id="EYm4772UehAw4xDok6Kb-24" value="" style="curved=0;startArrow=none;endArrow=block;exitX=0.5;exitY=0.97;entryX=0.95;entryY=0;rounded=0;fontSize=15;startSize=8;endSize=8;shadow=0;fontFamily=Helvetica;" edge="1" parent="1" source="EYm4772UehAw4xDok6Kb-9" target="EYm4772UehAw4xDok6Kb-10">
          <mxGeometry relative="1" as="geometry">
            <Array as="points">
              <mxPoint x="303" y="486" />
            </Array>
          </mxGeometry>
        </mxCell>
        <mxCell id="EYm4772UehAw4xDok6Kb-25" value="" style="curved=1;startArrow=none;endArrow=block;exitX=0.5;exitY=0.99;entryX=0.5;entryY=-0.01;rounded=0;fontSize=15;startSize=8;endSize=8;shadow=0;fontFamily=Helvetica;" edge="1" parent="1" source="EYm4772UehAw4xDok6Kb-10" target="EYm4772UehAw4xDok6Kb-11">
          <mxGeometry relative="1" as="geometry">
            <Array as="points" />
          </mxGeometry>
        </mxCell>
      </root>
    </mxGraphModel>
  </diagram>
  <diagram name="第 3 页" id="oqgr-Pd5_XOuiWwKUXBL">
    <mxGraphModel dx="851" dy="575" grid="0" gridSize="10" guides="1" tooltips="1" connect="1" arrows="1" fold="1" page="1" pageScale="1" pageWidth="827" pageHeight="1169" math="0" shadow="0">
      <root>
        <mxCell id="0" />
        <mxCell id="1" parent="0" />
        <mxCell id="zXspMsHlCRJ3kHdTNDLi-113" value="" style="endArrow=none;dashed=1;html=1;rounded=0;fontSize=12;startSize=8;endSize=8;curved=1;strokeWidth=2;exitX=0;exitY=0.25;exitDx=0;exitDy=0;entryX=0.947;entryY=0.947;entryDx=0;entryDy=0;entryPerimeter=0;" edge="1" parent="1" target="zXspMsHlCRJ3kHdTNDLi-66">
          <mxGeometry width="50" height="50" relative="1" as="geometry">
            <mxPoint x="436" y="544" as="sourcePoint" />
            <mxPoint x="232" y="362" as="targetPoint" />
          </mxGeometry>
        </mxCell>
        <mxCell id="zXspMsHlCRJ3kHdTNDLi-64" value="RNA二级结构&#xa;预测算法" style="whiteSpace=wrap;strokeWidth=2;fontSize=18;fillColor=#dae8fc;strokeColor=#6c8ebf;" vertex="1" parent="1">
          <mxGeometry x="399" y="189" width="162" height="44" as="geometry" />
        </mxCell>
        <mxCell id="zXspMsHlCRJ3kHdTNDLi-65" value="架构" style="whiteSpace=wrap;strokeWidth=2;fontSize=18;fillColor=#ffe6cc;strokeColor=#d79b00;" vertex="1" parent="1">
          <mxGeometry x="215" y="272" width="47" height="34" as="geometry" />
        </mxCell>
        <mxCell id="zXspMsHlCRJ3kHdTNDLi-66" value="最近邻模型" style="whiteSpace=wrap;strokeWidth=2;fontSize=18;fillColor=#b0e3e6;strokeColor=#0e8088;" vertex="1" parent="1">
          <mxGeometry x="145.40499999999997" y="317" width="110.41" height="38" as="geometry" />
        </mxCell>
        <mxCell id="zXspMsHlCRJ3kHdTNDLi-67" value="预测" style="whiteSpace=wrap;strokeWidth=2;fontSize=18;fillColor=#d5e8d4;strokeColor=#82b366;" vertex="1" parent="1">
          <mxGeometry x="675" y="272" width="47" height="34" as="geometry" />
        </mxCell>
        <mxCell id="zXspMsHlCRJ3kHdTNDLi-69" value="概率生成模型" style="whiteSpace=wrap;strokeWidth=2;fontSize=18;aspect=fixed;fillColor=#b1ddf0;strokeColor=#10739e;" vertex="1" parent="1">
          <mxGeometry x="138.57999999999998" y="435" width="124.06" height="38" as="geometry" />
        </mxCell>
        <mxCell id="zXspMsHlCRJ3kHdTNDLi-70" value="深度学习模型" style="whiteSpace=wrap;strokeWidth=2;fontSize=18;aspect=fixed;fillColor=#fad9d5;strokeColor=#ae4132;" vertex="1" parent="1">
          <mxGeometry x="138.57999999999998" y="556" width="124.06" height="38" as="geometry" />
        </mxCell>
        <mxCell id="zXspMsHlCRJ3kHdTNDLi-71" value="Turner 自由能参数" style="whiteSpace=wrap;strokeWidth=2;fontSize=14;fillColor=#f5f5f5;strokeColor=#666666;fontColor=#333333;" vertex="1" parent="1">
          <mxGeometry x="32.670000000000016" y="384.36" width="100" height="38" as="geometry" />
        </mxCell>
        <mxCell id="zXspMsHlCRJ3kHdTNDLi-72" value="CONTRAfold 近邻模型" style="whiteSpace=wrap;strokeWidth=2;fontSize=14;fillColor=#f5f5f5;strokeColor=#666666;fontColor=#333333;" vertex="1" parent="1">
          <mxGeometry x="151.33" y="384.36" width="100" height="38" as="geometry" />
        </mxCell>
        <mxCell id="zXspMsHlCRJ3kHdTNDLi-73" value="MXfold2" style="whiteSpace=wrap;strokeWidth=2;fontSize=14;fillColor=#f5f5f5;strokeColor=#666666;fontColor=#333333;" vertex="1" parent="1">
          <mxGeometry x="266" y="384.36" width="100" height="38" as="geometry" />
        </mxCell>
        <mxCell id="zXspMsHlCRJ3kHdTNDLi-75" value="" style="curved=0;startArrow=none;endArrow=block;exitX=0;exitY=0.74;entryX=0.5;entryY=-0.01;rounded=0;fontSize=18;startSize=8;endSize=8;" edge="1" parent="1" source="zXspMsHlCRJ3kHdTNDLi-64" target="zXspMsHlCRJ3kHdTNDLi-65">
          <mxGeometry relative="1" as="geometry">
            <Array as="points">
              <mxPoint x="239" y="250" />
            </Array>
          </mxGeometry>
        </mxCell>
        <mxCell id="zXspMsHlCRJ3kHdTNDLi-77" value="" style="curved=0;startArrow=none;endArrow=block;exitX=1;exitY=0.81;entryX=0.5;entryY=-0.01;rounded=0;fontSize=18;startSize=8;endSize=8;" edge="1" parent="1" source="zXspMsHlCRJ3kHdTNDLi-64" target="zXspMsHlCRJ3kHdTNDLi-67">
          <mxGeometry relative="1" as="geometry">
            <Array as="points">
              <mxPoint x="699" y="251" />
            </Array>
          </mxGeometry>
        </mxCell>
        <mxCell id="zXspMsHlCRJ3kHdTNDLi-81" value="" style="curved=0;startArrow=none;endArrow=block;exitX=0.065;exitY=0.974;entryX=0.5;entryY=0;rounded=0;fontSize=18;startSize=8;endSize=8;exitDx=0;exitDy=0;exitPerimeter=0;" edge="1" parent="1" source="zXspMsHlCRJ3kHdTNDLi-66" target="zXspMsHlCRJ3kHdTNDLi-71">
          <mxGeometry relative="1" as="geometry">
            <Array as="points" />
            <mxPoint x="173.89249999999993" y="338" as="sourcePoint" />
          </mxGeometry>
        </mxCell>
        <mxCell id="zXspMsHlCRJ3kHdTNDLi-82" value="" style="curved=0;startArrow=none;endArrow=block;entryX=0.5;entryY=0;rounded=0;fontSize=18;startSize=8;endSize=8;exitX=0.5;exitY=1;exitDx=0;exitDy=0;" edge="1" parent="1" source="zXspMsHlCRJ3kHdTNDLi-66" target="zXspMsHlCRJ3kHdTNDLi-72">
          <mxGeometry relative="1" as="geometry">
            <Array as="points" />
            <mxPoint x="207" y="363" as="sourcePoint" />
          </mxGeometry>
        </mxCell>
        <mxCell id="zXspMsHlCRJ3kHdTNDLi-83" value="" style="curved=0;startArrow=none;endArrow=block;rounded=0;fontSize=18;startSize=8;endSize=8;exitX=1;exitY=0.5;exitDx=0;exitDy=0;" edge="1" parent="1" source="zXspMsHlCRJ3kHdTNDLi-71">
          <mxGeometry relative="1" as="geometry">
            <Array as="points" />
            <mxPoint x="229.09749999999985" y="338" as="sourcePoint" />
            <mxPoint x="150" y="403" as="targetPoint" />
          </mxGeometry>
        </mxCell>
        <mxCell id="zXspMsHlCRJ3kHdTNDLi-85" value="" style="endArrow=classic;html=1;rounded=0;fontSize=18;startSize=8;endSize=8;curved=0;exitX=0.5;exitY=1;exitDx=0;exitDy=0;entryX=0.5;entryY=0;entryDx=0;entryDy=0;" edge="1" parent="1" source="zXspMsHlCRJ3kHdTNDLi-64" target="zXspMsHlCRJ3kHdTNDLi-86">
          <mxGeometry width="50" height="50" relative="1" as="geometry">
            <mxPoint x="369" y="293" as="sourcePoint" />
            <mxPoint x="419" y="243" as="targetPoint" />
          </mxGeometry>
        </mxCell>
        <mxCell id="zXspMsHlCRJ3kHdTNDLi-86" value="参数化" style="whiteSpace=wrap;strokeWidth=2;fontSize=18;fillColor=#e1d5e7;strokeColor=#9673a6;" vertex="1" parent="1">
          <mxGeometry x="445" y="270" width="70" height="34" as="geometry" />
        </mxCell>
        <mxCell id="zXspMsHlCRJ3kHdTNDLi-87" value="所有两个碱基组合的碱基对预测" style="whiteSpace=wrap;strokeWidth=2;fontSize=18;fillColor=#fad9d5;strokeColor=#ae4132;" vertex="1" parent="1">
          <mxGeometry x="638" y="550" width="160" height="44" as="geometry" />
        </mxCell>
        <mxCell id="zXspMsHlCRJ3kHdTNDLi-88" value="最小自由能(MFE)" style="whiteSpace=wrap;strokeWidth=2;fontSize=18;fillColor=#b0e3e6;strokeColor=#0e8088;" vertex="1" parent="1">
          <mxGeometry x="641" y="324" width="160" height="44" as="geometry" />
        </mxCell>
        <mxCell id="zXspMsHlCRJ3kHdTNDLi-89" value="最大期望准确度(MEA)" style="whiteSpace=wrap;strokeWidth=2;fontSize=18;fillColor=#b1ddf0;strokeColor=#10739e;" vertex="1" parent="1">
          <mxGeometry x="641" y="430" width="160" height="44" as="geometry" />
        </mxCell>
        <mxCell id="zXspMsHlCRJ3kHdTNDLi-90" value="湿实验&#xa;（实验数据拟合）" style="whiteSpace=wrap;strokeWidth=2;fontSize=18;fillColor=#b0e3e6;strokeColor=#0e8088;aspect=fixed;" vertex="1" parent="1">
          <mxGeometry x="439" y="322" width="142.38" height="44" as="geometry" />
        </mxCell>
        <mxCell id="zXspMsHlCRJ3kHdTNDLi-91" value="机器学习&#xa;（进化保守信息）" style="whiteSpace=wrap;strokeWidth=2;fontSize=18;fillColor=#b1ddf0;strokeColor=#10739e;" vertex="1" parent="1">
          <mxGeometry x="439.03" y="432" width="142.35" height="44" as="geometry" />
        </mxCell>
        <mxCell id="zXspMsHlCRJ3kHdTNDLi-92" value="深度学习&#xa;(多重二元分类)" style="whiteSpace=wrap;strokeWidth=2;fontSize=18;fillColor=#fad9d5;strokeColor=#ae4132;aspect=fixed;" vertex="1" parent="1">
          <mxGeometry x="439" y="550" width="142.35" height="44" as="geometry" />
        </mxCell>
        <mxCell id="zXspMsHlCRJ3kHdTNDLi-93" value="上下文无关文法 (Pfold,TORNADO)" style="whiteSpace=wrap;strokeWidth=2;fontSize=14;aspect=fixed;fillColor=#f5f5f5;strokeColor=#666666;fontColor=#333333;" vertex="1" parent="1">
          <mxGeometry x="73.09" y="496" width="122.91" height="38" as="geometry" />
        </mxCell>
        <mxCell id="zXspMsHlCRJ3kHdTNDLi-94" value="上下文相关文法 (树邻接语法)" style="whiteSpace=wrap;strokeWidth=2;fontSize=14;aspect=fixed;fillColor=#f5f5f5;strokeColor=#666666;fontColor=#333333;" vertex="1" parent="1">
          <mxGeometry x="217.09" y="496" width="110.65" height="38" as="geometry" />
        </mxCell>
        <mxCell id="zXspMsHlCRJ3kHdTNDLi-98" style="edgeStyle=none;curved=1;rounded=0;orthogonalLoop=1;jettySize=auto;html=1;exitX=1;exitY=0.5;exitDx=0;exitDy=0;fontSize=12;startSize=8;endSize=8;" edge="1" parent="1" source="zXspMsHlCRJ3kHdTNDLi-70" target="zXspMsHlCRJ3kHdTNDLi-70">
          <mxGeometry relative="1" as="geometry" />
        </mxCell>
        <mxCell id="zXspMsHlCRJ3kHdTNDLi-102" value="One-hot编码(CNN,BiLSTM)" style="whiteSpace=wrap;strokeWidth=2;fontSize=14;aspect=fixed;fillColor=#f5f5f5;strokeColor=#666666;fontColor=#333333;" vertex="1" parent="1">
          <mxGeometry x="55.91" y="615" width="122.91" height="38" as="geometry" />
        </mxCell>
        <mxCell id="zXspMsHlCRJ3kHdTNDLi-103" value="Embedding (Transformer, 预训练模型)" style="whiteSpace=wrap;strokeWidth=2;fontSize=14;fillColor=#f5f5f5;strokeColor=#666666;fontColor=#333333;" vertex="1" parent="1">
          <mxGeometry x="196" y="615" width="170" height="38" as="geometry" />
        </mxCell>
        <mxCell id="zXspMsHlCRJ3kHdTNDLi-104" value="" style="curved=0;startArrow=none;endArrow=block;exitX=0;exitY=0.8;rounded=0;fontSize=18;startSize=8;endSize=8;" edge="1" parent="1">
          <mxGeometry relative="1" as="geometry">
            <Array as="points" />
            <mxPoint x="183.91" y="473" as="sourcePoint" />
            <mxPoint x="141.91" y="494" as="targetPoint" />
          </mxGeometry>
        </mxCell>
        <mxCell id="zXspMsHlCRJ3kHdTNDLi-106" value="" style="curved=0;startArrow=none;endArrow=block;exitX=0.692;exitY=1.026;rounded=0;fontSize=18;startSize=8;endSize=8;entryX=0.5;entryY=0;entryDx=0;entryDy=0;exitDx=0;exitDy=0;exitPerimeter=0;" edge="1" parent="1" source="zXspMsHlCRJ3kHdTNDLi-69" target="zXspMsHlCRJ3kHdTNDLi-94">
          <mxGeometry relative="1" as="geometry">
            <Array as="points" />
            <mxPoint x="193.91" y="483" as="sourcePoint" />
            <mxPoint x="151.91" y="504" as="targetPoint" />
          </mxGeometry>
        </mxCell>
        <mxCell id="zXspMsHlCRJ3kHdTNDLi-107" value="" style="curved=0;startArrow=none;endArrow=block;exitX=0.25;exitY=1;rounded=0;fontSize=18;startSize=8;endSize=8;exitDx=0;exitDy=0;entryX=0.5;entryY=0;entryDx=0;entryDy=0;" edge="1" parent="1" source="zXspMsHlCRJ3kHdTNDLi-70" target="zXspMsHlCRJ3kHdTNDLi-102">
          <mxGeometry relative="1" as="geometry">
            <Array as="points" />
            <mxPoint x="193.91" y="483" as="sourcePoint" />
            <mxPoint x="151.91" y="504" as="targetPoint" />
          </mxGeometry>
        </mxCell>
        <mxCell id="zXspMsHlCRJ3kHdTNDLi-108" value="" style="curved=0;startArrow=none;endArrow=block;exitX=0.671;exitY=0.987;rounded=0;fontSize=18;startSize=8;endSize=8;exitDx=0;exitDy=0;entryX=0.5;entryY=0;entryDx=0;entryDy=0;exitPerimeter=0;" edge="1" parent="1" source="zXspMsHlCRJ3kHdTNDLi-70" target="zXspMsHlCRJ3kHdTNDLi-103">
          <mxGeometry relative="1" as="geometry">
            <Array as="points" />
            <mxPoint x="185.91" y="604" as="sourcePoint" />
            <mxPoint x="126.91" y="625" as="targetPoint" />
          </mxGeometry>
        </mxCell>
        <mxCell id="zXspMsHlCRJ3kHdTNDLi-109" value="" style="endArrow=none;dashed=1;html=1;rounded=0;fontSize=12;startSize=8;endSize=8;curved=1;entryX=1;entryY=0.5;entryDx=0;entryDy=0;strokeWidth=2;" edge="1" parent="1" target="zXspMsHlCRJ3kHdTNDLi-66">
          <mxGeometry width="50" height="50" relative="1" as="geometry">
            <mxPoint x="434" y="347" as="sourcePoint" />
            <mxPoint x="484" y="403" as="targetPoint" />
          </mxGeometry>
        </mxCell>
        <mxCell id="zXspMsHlCRJ3kHdTNDLi-110" value="" style="endArrow=none;dashed=1;html=1;rounded=0;fontSize=12;startSize=8;endSize=8;curved=1;strokeWidth=2;exitX=0;exitY=0;exitDx=0;exitDy=0;" edge="1" parent="1" source="zXspMsHlCRJ3kHdTNDLi-91">
          <mxGeometry width="50" height="50" relative="1" as="geometry">
            <mxPoint x="482" y="418" as="sourcePoint" />
            <mxPoint x="257" y="336" as="targetPoint" />
          </mxGeometry>
        </mxCell>
        <mxCell id="zXspMsHlCRJ3kHdTNDLi-111" value="" style="endArrow=none;dashed=1;html=1;rounded=0;fontSize=12;startSize=8;endSize=8;curved=1;entryX=1;entryY=0.5;entryDx=0;entryDy=0;strokeWidth=2;exitX=0;exitY=0.5;exitDx=0;exitDy=0;" edge="1" parent="1" source="zXspMsHlCRJ3kHdTNDLi-91" target="zXspMsHlCRJ3kHdTNDLi-69">
          <mxGeometry width="50" height="50" relative="1" as="geometry">
            <mxPoint x="439" y="435" as="sourcePoint" />
            <mxPoint x="314" y="327" as="targetPoint" />
          </mxGeometry>
        </mxCell>
        <mxCell id="zXspMsHlCRJ3kHdTNDLi-112" value="" style="endArrow=none;dashed=1;html=1;rounded=0;fontSize=12;startSize=8;endSize=8;curved=1;strokeWidth=2;exitX=0;exitY=0.5;exitDx=0;exitDy=0;" edge="1" parent="1" source="zXspMsHlCRJ3kHdTNDLi-92" target="zXspMsHlCRJ3kHdTNDLi-70">
          <mxGeometry width="50" height="50" relative="1" as="geometry">
            <mxPoint x="436" y="555" as="sourcePoint" />
            <mxPoint x="259.6399999999999" y="586.5" as="targetPoint" />
          </mxGeometry>
        </mxCell>
        <mxCell id="zXspMsHlCRJ3kHdTNDLi-114" value="" style="endArrow=none;dashed=1;html=1;rounded=0;fontSize=12;startSize=8;endSize=8;curved=1;entryX=1;entryY=0.25;entryDx=0;entryDy=0;strokeWidth=2;" edge="1" parent="1">
          <mxGeometry width="50" height="50" relative="1" as="geometry">
            <mxPoint x="634" y="575" as="sourcePoint" />
            <mxPoint x="581" y="575" as="targetPoint" />
          </mxGeometry>
        </mxCell>
        <mxCell id="zXspMsHlCRJ3kHdTNDLi-115" value="" style="endArrow=none;dashed=1;html=1;rounded=0;fontSize=12;startSize=8;endSize=8;curved=1;entryX=1;entryY=0.5;entryDx=0;entryDy=0;strokeWidth=2;" edge="1" parent="1" target="zXspMsHlCRJ3kHdTNDLi-92">
          <mxGeometry width="50" height="50" relative="1" as="geometry">
            <mxPoint x="635" y="365" as="sourcePoint" />
            <mxPoint x="591" y="585" as="targetPoint" />
          </mxGeometry>
        </mxCell>
        <mxCell id="zXspMsHlCRJ3kHdTNDLi-116" value="" style="endArrow=none;dashed=1;html=1;rounded=0;fontSize=12;startSize=8;endSize=8;curved=1;strokeWidth=2;" edge="1" parent="1">
          <mxGeometry width="50" height="50" relative="1" as="geometry">
            <mxPoint x="640" y="344" as="sourcePoint" />
            <mxPoint x="586" y="344" as="targetPoint" />
          </mxGeometry>
        </mxCell>
        <mxCell id="zXspMsHlCRJ3kHdTNDLi-118" value="" style="endArrow=none;dashed=1;html=1;rounded=0;fontSize=12;startSize=8;endSize=8;curved=1;strokeWidth=2;entryX=1;entryY=0.5;entryDx=0;entryDy=0;" edge="1" parent="1" target="zXspMsHlCRJ3kHdTNDLi-90">
          <mxGeometry width="50" height="50" relative="1" as="geometry">
            <mxPoint x="638" y="451" as="sourcePoint" />
            <mxPoint x="596" y="354" as="targetPoint" />
          </mxGeometry>
        </mxCell>
        <mxCell id="zXspMsHlCRJ3kHdTNDLi-122" value="" style="endArrow=none;dashed=1;html=1;rounded=0;fontSize=12;startSize=8;endSize=8;curved=1;strokeWidth=2;entryX=1;entryY=0.5;entryDx=0;entryDy=0;" edge="1" parent="1">
          <mxGeometry width="50" height="50" relative="1" as="geometry">
            <mxPoint x="639" y="455" as="sourcePoint" />
            <mxPoint x="581.3499999999999" y="455" as="targetPoint" />
          </mxGeometry>
        </mxCell>
        <mxCell id="zXspMsHlCRJ3kHdTNDLi-123" value="" style="endArrow=none;dashed=1;html=1;rounded=0;fontSize=12;startSize=8;endSize=8;curved=1;strokeWidth=2;entryX=1;entryY=0.5;entryDx=0;entryDy=0;" edge="1" parent="1" target="zXspMsHlCRJ3kHdTNDLi-91">
          <mxGeometry width="50" height="50" relative="1" as="geometry">
            <mxPoint x="636" y="350" as="sourcePoint" />
            <mxPoint x="591.3499999999999" y="465" as="targetPoint" />
          </mxGeometry>
        </mxCell>
        <mxCell id="zXspMsHlCRJ3kHdTNDLi-128" value="" style="curved=0;startArrow=none;endArrow=block;rounded=0;fontSize=18;startSize=8;endSize=8;entryX=0;entryY=0.5;entryDx=0;entryDy=0;" edge="1" parent="1" target="zXspMsHlCRJ3kHdTNDLi-73">
          <mxGeometry relative="1" as="geometry">
            <Array as="points" />
            <mxPoint x="250" y="403" as="sourcePoint" />
            <mxPoint x="160" y="413" as="targetPoint" />
          </mxGeometry>
        </mxCell>
      </root>
    </mxGraphModel>
  </diagram>
  <diagram id="9Z-ATXoY6qaSo9Erwyu2" name="第 5 页">
    <mxGraphModel dx="24" dy="575" grid="0" gridSize="10" guides="1" tooltips="1" connect="1" arrows="1" fold="1" page="1" pageScale="1" pageWidth="827" pageHeight="1169" math="0" shadow="0">
      <root>
        <mxCell id="0" />
        <mxCell id="1" parent="0" />
        <mxCell id="pe2AzDNvpi8vnf2yoKKo-66" value="siRNA效应预测" style="whiteSpace=wrap;strokeWidth=2;fontSize=17;fillColor=#dae8fc;strokeColor=#6c8ebf;" vertex="1" parent="1">
          <mxGeometry x="1199" y="379" width="133" height="34" as="geometry" />
        </mxCell>
        <mxCell id="pe2AzDNvpi8vnf2yoKKo-67" value="第一代算法" style="whiteSpace=wrap;strokeWidth=2;fontSize=16;fillColor=#b1ddf0;strokeColor=#10739e;" vertex="1" parent="1">
          <mxGeometry x="976" y="455" width="95" height="34" as="geometry" />
        </mxCell>
        <mxCell id="pe2AzDNvpi8vnf2yoKKo-68" value="第二代算法" style="whiteSpace=wrap;strokeWidth=2;fontSize=16;fillColor=#b0e3e6;strokeColor=#0e8088;" vertex="1" parent="1">
          <mxGeometry x="1216" y="455" width="95" height="34" as="geometry" />
        </mxCell>
        <mxCell id="pe2AzDNvpi8vnf2yoKKo-69" value="基于少量观测值" style="whiteSpace=wrap;strokeWidth=2;fontSize=16;fillColor=#b1ddf0;strokeColor=#10739e;" vertex="1" parent="1">
          <mxGeometry x="865" y="509" width="127" height="34" as="geometry" />
        </mxCell>
        <mxCell id="pe2AzDNvpi8vnf2yoKKo-70" value="高通量数据集" style="whiteSpace=wrap;strokeWidth=2;fontSize=16;fillColor=#b0e3e6;strokeColor=#0e8088;" vertex="1" parent="1">
          <mxGeometry x="1153" y="509.5" width="126" height="34" as="geometry" />
        </mxCell>
        <mxCell id="pe2AzDNvpi8vnf2yoKKo-72" value="人工神经网络(Biopredsi)" style="whiteSpace=wrap;strokeWidth=2;fontSize=14;fillColor=#ffe6cc;strokeColor=#d79b00;" vertex="1" parent="1">
          <mxGeometry x="1352" y="560.5" width="110" height="34" as="geometry" />
        </mxCell>
        <mxCell id="pe2AzDNvpi8vnf2yoKKo-76" value="特征提取" style="whiteSpace=wrap;strokeWidth=2;fontSize=16;fillColor=#bac8d3;strokeColor=#23445d;" vertex="1" parent="1">
          <mxGeometry x="1031.5" y="509" width="79" height="34" as="geometry" />
        </mxCell>
        <mxCell id="pe2AzDNvpi8vnf2yoKKo-77" value="热力学稳定性" style="whiteSpace=wrap;strokeWidth=2;fontSize=14;fillColor=#fff2cc;strokeColor=#d6b656;" vertex="1" parent="1">
          <mxGeometry x="1016" y="608.5" width="110" height="34" as="geometry" />
        </mxCell>
        <mxCell id="pe2AzDNvpi8vnf2yoKKo-78" value="碱基位置偏好" style="whiteSpace=wrap;strokeWidth=2;fontSize=14;fillColor=#ffe6cc;strokeColor=#d79b00;" vertex="1" parent="1">
          <mxGeometry x="1016" y="562.5" width="110" height="34" as="geometry" />
        </mxCell>
        <mxCell id="pe2AzDNvpi8vnf2yoKKo-79" value="mRNA二级结构" style="whiteSpace=wrap;strokeWidth=2;fontSize=14;fillColor=#d5e8d4;strokeColor=#82b366;" vertex="1" parent="1">
          <mxGeometry x="1016" y="694.5" width="110" height="34" as="geometry" />
        </mxCell>
        <mxCell id="pe2AzDNvpi8vnf2yoKKo-80" value="靶点结合亲和力" style="whiteSpace=wrap;strokeWidth=2;fontSize=14;fillColor=#e1d5e7;strokeColor=#9673a6;" vertex="1" parent="1">
          <mxGeometry x="1016" y="651.5" width="110" height="34" as="geometry" />
        </mxCell>
        <mxCell id="pe2AzDNvpi8vnf2yoKKo-90" value="2431个siRNA靶向34个mRNA" style="whiteSpace=wrap;strokeWidth=2;fontSize=14;fillColor=#dae8fc;strokeColor=#6c8ebf;opacity=50;" vertex="1" parent="1">
          <mxGeometry x="1163.5" y="606" width="105" height="37" as="geometry" />
        </mxCell>
        <mxCell id="pe2AzDNvpi8vnf2yoKKo-92" value="" style="curved=0;startArrow=none;endArrow=block;exitX=0;exitY=0.73;entryX=0.5;entryY=-0.01;rounded=0;fontSize=14;startSize=8;endSize=8;" edge="1" parent="1" source="pe2AzDNvpi8vnf2yoKKo-66" target="pe2AzDNvpi8vnf2yoKKo-67">
          <mxGeometry relative="1" as="geometry">
            <Array as="points">
              <mxPoint x="1024" y="432" />
            </Array>
          </mxGeometry>
        </mxCell>
        <mxCell id="pe2AzDNvpi8vnf2yoKKo-96" value="" style="curved=1;startArrow=none;endArrow=block;exitX=0.5;exitY=0.99;rounded=0;fontSize=14;startSize=8;endSize=8;entryX=0.5;entryY=0;entryDx=0;entryDy=0;" edge="1" parent="1" source="pe2AzDNvpi8vnf2yoKKo-70" target="pe2AzDNvpi8vnf2yoKKo-124">
          <mxGeometry relative="1" as="geometry">
            <Array as="points" />
            <mxPoint x="1241" y="567" as="targetPoint" />
          </mxGeometry>
        </mxCell>
        <mxCell id="pe2AzDNvpi8vnf2yoKKo-122" value="LASSO回归&#xa;(DSIR, i-Score)" style="whiteSpace=wrap;strokeWidth=2;fontSize=14;fillColor=#fff2cc;strokeColor=#d6b656;" vertex="1" parent="1">
          <mxGeometry x="1352" y="610" width="110" height="34" as="geometry" />
        </mxCell>
        <mxCell id="pe2AzDNvpi8vnf2yoKKo-123" value="支持向量机&#xa;(siRNAPred,&#xa;OligoWalk)" style="whiteSpace=wrap;strokeWidth=2;fontSize=14;fillColor=#e1d5e7;strokeColor=#9673a6;" vertex="1" parent="1">
          <mxGeometry x="1352" y="655" width="110" height="52" as="geometry" />
        </mxCell>
        <mxCell id="pe2AzDNvpi8vnf2yoKKo-124" value="Huesken数据集" style="whiteSpace=wrap;strokeWidth=2;fontSize=14;fillColor=#b0e3e6;strokeColor=#0e8088;opacity=70;" vertex="1" parent="1">
          <mxGeometry x="1154.5" y="563" width="123" height="34" as="geometry" />
        </mxCell>
        <mxCell id="pe2AzDNvpi8vnf2yoKKo-125" value="Amarzguioui &#xa;数据集" style="whiteSpace=wrap;strokeWidth=2;fontSize=14;fillColor=#dae8fc;strokeColor=#6c8ebf;opacity=70;" vertex="1" parent="1">
          <mxGeometry x="877" y="608.5" width="103" height="34" as="geometry" />
        </mxCell>
        <mxCell id="pe2AzDNvpi8vnf2yoKKo-126" value="Reynolds数据集" style="whiteSpace=wrap;strokeWidth=2;fontSize=14;fillColor=#dae8fc;strokeColor=#6c8ebf;opacity=70;" vertex="1" parent="1">
          <mxGeometry x="874.5" y="655" width="108" height="34" as="geometry" />
        </mxCell>
        <mxCell id="pe2AzDNvpi8vnf2yoKKo-127" value=" Takayuki数据集" style="whiteSpace=wrap;strokeWidth=2;fontSize=14;fillColor=#b0e3e6;strokeColor=#0e8088;opacity=70;" vertex="1" parent="1">
          <mxGeometry x="1154.5" y="664.5" width="123" height="34" as="geometry" />
        </mxCell>
        <mxCell id="pe2AzDNvpi8vnf2yoKKo-129" value="702个siRNA靶向EGFP mRNA" style="whiteSpace=wrap;strokeWidth=2;fontSize=14;fillColor=#dae8fc;strokeColor=#6c8ebf;opacity=50;" vertex="1" parent="1">
          <mxGeometry x="1163.5" y="707.5" width="105" height="37" as="geometry" />
        </mxCell>
        <mxCell id="pe2AzDNvpi8vnf2yoKKo-131" value="" style="curved=0;startArrow=none;endArrow=block;exitX=0.5;exitY=0.99;entryX=0.5;entryY=-0.01;rounded=0;fontSize=14;startSize=8;endSize=8;" edge="1" parent="1" source="pe2AzDNvpi8vnf2yoKKo-69" target="pe2AzDNvpi8vnf2yoKKo-89">
          <mxGeometry relative="1" as="geometry">
            <Array as="points" />
            <mxPoint x="948" y="543" as="sourcePoint" />
            <mxPoint x="752" y="660" as="targetPoint" />
          </mxGeometry>
        </mxCell>
        <mxCell id="pe2AzDNvpi8vnf2yoKKo-89" value="Ui-Tei数据集&#xa;(siDirect)" style="whiteSpace=wrap;strokeWidth=2;fontSize=14;fillColor=#dae8fc;strokeColor=#6c8ebf;opacity=70;" vertex="1" parent="1">
          <mxGeometry x="877" y="562.5" width="103" height="34" as="geometry" />
        </mxCell>
        <mxCell id="pe2AzDNvpi8vnf2yoKKo-134" value="第三代算法" style="whiteSpace=wrap;strokeWidth=2;fontSize=16;fillColor=#f8cecc;strokeColor=#b85450;" vertex="1" parent="1">
          <mxGeometry x="1478" y="455" width="95" height="34" as="geometry" />
        </mxCell>
        <mxCell id="pe2AzDNvpi8vnf2yoKKo-135" value="机器学习" style="whiteSpace=wrap;strokeWidth=2;fontSize=16;fillColor=#ffcc99;strokeColor=#36393d;" vertex="1" parent="1">
          <mxGeometry x="1367.5" y="507" width="79" height="34" as="geometry" />
        </mxCell>
        <mxCell id="pe2AzDNvpi8vnf2yoKKo-137" value="深度学习" style="whiteSpace=wrap;strokeWidth=2;fontSize=16;fillColor=#ffcccc;strokeColor=#36393d;" vertex="1" parent="1">
          <mxGeometry x="1490" y="509" width="79" height="34" as="geometry" />
        </mxCell>
        <mxCell id="pe2AzDNvpi8vnf2yoKKo-138" value="卷积神经网络(CNN)" style="whiteSpace=wrap;strokeWidth=2;fontSize=14;fillColor=#ffe6cc;strokeColor=#d79b00;" vertex="1" parent="1">
          <mxGeometry x="1474" y="562.5" width="111" height="34" as="geometry" />
        </mxCell>
        <mxCell id="pe2AzDNvpi8vnf2yoKKo-139" value="图神经网络(GNN)" style="whiteSpace=wrap;strokeWidth=2;fontSize=14;fillColor=#fff2cc;strokeColor=#d6b656;" vertex="1" parent="1">
          <mxGeometry x="1474" y="612" width="111" height="34" as="geometry" />
        </mxCell>
        <mxCell id="pe2AzDNvpi8vnf2yoKKo-141" value="" style="curved=0;startArrow=none;endArrow=block;entryX=0.5;entryY=0;rounded=0;fontSize=14;startSize=8;endSize=8;entryDx=0;entryDy=0;exitX=1;exitY=0.5;exitDx=0;exitDy=0;" edge="1" parent="1" source="pe2AzDNvpi8vnf2yoKKo-66" target="pe2AzDNvpi8vnf2yoKKo-134">
          <mxGeometry relative="1" as="geometry">
            <Array as="points">
              <mxPoint x="1526" y="440" />
            </Array>
            <mxPoint x="1215" y="411" as="sourcePoint" />
            <mxPoint x="1272" y="465" as="targetPoint" />
          </mxGeometry>
        </mxCell>
        <mxCell id="pe2AzDNvpi8vnf2yoKKo-142" value="预训练的RNA基础模型" style="whiteSpace=wrap;strokeWidth=2;fontSize=14;fillColor=#fad9d5;strokeColor=#ae4132;" vertex="1" parent="1">
          <mxGeometry x="1474" y="664" width="111" height="38" as="geometry" />
        </mxCell>
        <mxCell id="pe2AzDNvpi8vnf2yoKKo-143" value="" style="endArrow=classic;html=1;rounded=0;fontSize=12;startSize=8;endSize=8;curved=1;entryX=0.5;entryY=0;entryDx=0;entryDy=0;" edge="1" parent="1" source="pe2AzDNvpi8vnf2yoKKo-66" target="pe2AzDNvpi8vnf2yoKKo-68">
          <mxGeometry width="50" height="50" relative="1" as="geometry">
            <mxPoint x="1244" y="617" as="sourcePoint" />
            <mxPoint x="1294" y="567" as="targetPoint" />
          </mxGeometry>
        </mxCell>
        <mxCell id="pe2AzDNvpi8vnf2yoKKo-145" value="" style="endArrow=classic;html=1;rounded=0;fontSize=12;startSize=8;endSize=8;curved=0;exitX=1;exitY=1;exitDx=0;exitDy=0;entryX=0.5;entryY=0;entryDx=0;entryDy=0;" edge="1" parent="1" source="pe2AzDNvpi8vnf2yoKKo-67" target="pe2AzDNvpi8vnf2yoKKo-76">
          <mxGeometry width="50" height="50" relative="1" as="geometry">
            <mxPoint x="861" y="465" as="sourcePoint" />
            <mxPoint x="1075" y="507" as="targetPoint" />
          </mxGeometry>
        </mxCell>
        <mxCell id="pe2AzDNvpi8vnf2yoKKo-147" value="" style="endArrow=classic;html=1;rounded=0;fontSize=12;startSize=8;endSize=8;curved=1;exitX=0;exitY=1;exitDx=0;exitDy=0;" edge="1" parent="1" source="pe2AzDNvpi8vnf2yoKKo-67">
          <mxGeometry width="50" height="50" relative="1" as="geometry">
            <mxPoint x="1034" y="499" as="sourcePoint" />
            <mxPoint x="929" y="507" as="targetPoint" />
          </mxGeometry>
        </mxCell>
        <mxCell id="pe2AzDNvpi8vnf2yoKKo-150" value="" style="endArrow=classic;html=1;rounded=0;fontSize=12;startSize=8;endSize=8;curved=1;exitX=0;exitY=1;exitDx=0;exitDy=0;entryX=0.5;entryY=0;entryDx=0;entryDy=0;" edge="1" parent="1" source="pe2AzDNvpi8vnf2yoKKo-68" target="pe2AzDNvpi8vnf2yoKKo-70">
          <mxGeometry width="50" height="50" relative="1" as="geometry">
            <mxPoint x="1010" y="499" as="sourcePoint" />
            <mxPoint x="939" y="517" as="targetPoint" />
          </mxGeometry>
        </mxCell>
        <mxCell id="pe2AzDNvpi8vnf2yoKKo-151" value="" style="endArrow=classic;html=1;rounded=0;fontSize=12;startSize=8;endSize=8;curved=0;exitX=1;exitY=0.5;exitDx=0;exitDy=0;entryX=0.5;entryY=0;entryDx=0;entryDy=0;" edge="1" parent="1" source="pe2AzDNvpi8vnf2yoKKo-68" target="pe2AzDNvpi8vnf2yoKKo-135">
          <mxGeometry width="50" height="50" relative="1" as="geometry">
            <mxPoint x="1266" y="498" as="sourcePoint" />
            <mxPoint x="1361" y="505" as="targetPoint" />
            <Array as="points">
              <mxPoint x="1407" y="486" />
            </Array>
          </mxGeometry>
        </mxCell>
        <mxCell id="pe2AzDNvpi8vnf2yoKKo-152" value="" style="endArrow=classic;html=1;rounded=0;fontSize=12;startSize=8;endSize=8;curved=1;entryX=0.43;entryY=0.029;entryDx=0;entryDy=0;entryPerimeter=0;" edge="1" parent="1" target="pe2AzDNvpi8vnf2yoKKo-137">
          <mxGeometry width="50" height="50" relative="1" as="geometry">
            <mxPoint x="1524" y="490" as="sourcePoint" />
            <mxPoint x="1369" y="519" as="targetPoint" />
          </mxGeometry>
        </mxCell>
        <mxCell id="pe2AzDNvpi8vnf2yoKKo-154" value="" style="curved=0;startArrow=none;endArrow=block;exitX=0.5;exitY=1;rounded=0;fontSize=14;startSize=8;endSize=8;exitDx=0;exitDy=0;" edge="1" parent="1" source="pe2AzDNvpi8vnf2yoKKo-76" target="pe2AzDNvpi8vnf2yoKKo-78">
          <mxGeometry relative="1" as="geometry">
            <Array as="points" />
            <mxPoint x="939" y="553" as="sourcePoint" />
            <mxPoint x="939" y="573" as="targetPoint" />
          </mxGeometry>
        </mxCell>
        <mxCell id="pe2AzDNvpi8vnf2yoKKo-157" value="" style="endArrow=classic;html=1;rounded=0;fontSize=12;startSize=8;endSize=8;curved=1;entryX=0.5;entryY=0;entryDx=0;entryDy=0;exitX=0.5;exitY=1;exitDx=0;exitDy=0;" edge="1" parent="1" source="pe2AzDNvpi8vnf2yoKKo-137" target="pe2AzDNvpi8vnf2yoKKo-138">
          <mxGeometry width="50" height="50" relative="1" as="geometry">
            <mxPoint x="1234" y="667" as="sourcePoint" />
            <mxPoint x="1284" y="617" as="targetPoint" />
          </mxGeometry>
        </mxCell>
        <mxCell id="pe2AzDNvpi8vnf2yoKKo-158" value="" style="endArrow=classic;html=1;rounded=0;fontSize=12;startSize=8;endSize=8;curved=1;entryX=0.5;entryY=0;entryDx=0;entryDy=0;exitX=0.5;exitY=1;exitDx=0;exitDy=0;" edge="1" parent="1" source="pe2AzDNvpi8vnf2yoKKo-135" target="pe2AzDNvpi8vnf2yoKKo-72">
          <mxGeometry width="50" height="50" relative="1" as="geometry">
            <mxPoint x="1234" y="667" as="sourcePoint" />
            <mxPoint x="1284" y="617" as="targetPoint" />
          </mxGeometry>
        </mxCell>
      </root>
    </mxGraphModel>
  </diagram>
  <diagram id="HtA4SPJ8ZqGTn0XH7-DQ" name="第 6 页">
    <mxGraphModel dx="866" dy="571" grid="0" gridSize="10" guides="1" tooltips="1" connect="1" arrows="1" fold="1" page="0" pageScale="1" pageWidth="827" pageHeight="1169" math="0" shadow="0">
      <root>
        <mxCell id="0" />
        <mxCell id="1" parent="0" />
        <mxCell id="e5FLebuiL5Yrc78OhU8U-2" value="FastQC质控" style="whiteSpace=wrap;strokeWidth=2;fontSize=16;fillColor=#fff2cc;strokeColor=#d6b656;" vertex="1" parent="1">
          <mxGeometry x="120.5" y="180" width="142" height="43" as="geometry" />
        </mxCell>
        <mxCell id="e5FLebuiL5Yrc78OhU8U-3" value="去接头并提取UMI" style="whiteSpace=wrap;strokeWidth=2;fontSize=16;fillColor=#f8cecc;strokeColor=#b85450;" vertex="1" parent="1">
          <mxGeometry x="100.5" y="255" width="182" height="43" as="geometry" />
        </mxCell>
        <mxCell id="e5FLebuiL5Yrc78OhU8U-4" value="检查R2文件" style="whiteSpace=wrap;strokeWidth=2;fontSize=16;fillColor=#b1ddf0;strokeColor=#10739e;" vertex="1" parent="1">
          <mxGeometry x="120.5" y="323" width="142" height="43" as="geometry" />
        </mxCell>
        <mxCell id="e5FLebuiL5Yrc78OhU8U-5" value="去除rRNA" style="whiteSpace=wrap;strokeWidth=2;fontSize=16;fillColor=#ffff88;strokeColor=#36393d;" vertex="1" parent="1">
          <mxGeometry x="47.75" y="424" width="111" height="42" as="geometry" />
        </mxCell>
        <mxCell id="e5FLebuiL5Yrc78OhU8U-6" value="结束并报错" style="whiteSpace=wrap;strokeWidth=2;fontSize=16;fillColor=#f5f5f5;fontColor=#333333;strokeColor=#666666;" vertex="1" parent="1">
          <mxGeometry x="338" y="323" width="114" height="43" as="geometry" />
        </mxCell>
        <mxCell id="e5FLebuiL5Yrc78OhU8U-7" value="用bowtie2比对" style="whiteSpace=wrap;strokeWidth=2;fontSize=16;fillColor=#cce5ff;strokeColor=#36393d;" vertex="1" parent="1">
          <mxGeometry x="35" y="494" width="137" height="42" as="geometry" />
        </mxCell>
        <mxCell id="e5FLebuiL5Yrc78OhU8U-8" value="用STAR比对" style="whiteSpace=wrap;strokeWidth=2;fontSize=16;fillColor=#cdeb8b;strokeColor=#36393d;" vertex="1" parent="1">
          <mxGeometry x="32.5" y="568" width="142" height="42" as="geometry" />
        </mxCell>
        <mxCell id="e5FLebuiL5Yrc78OhU8U-9" value="可视化" style="whiteSpace=wrap;strokeWidth=2;fontSize=16;fillColor=#ffcc99;strokeColor=#36393d;" vertex="1" parent="1">
          <mxGeometry x="49.5" y="637" width="108" height="42" as="geometry" />
        </mxCell>
        <mxCell id="e5FLebuiL5Yrc78OhU8U-10" value="统计分析" style="whiteSpace=wrap;strokeWidth=2;fontSize=16;fillColor=#f9f7ed;strokeColor=#36393d;" vertex="1" parent="1">
          <mxGeometry x="41.5" y="713" width="124" height="42" as="geometry" />
        </mxCell>
        <mxCell id="e5FLebuiL5Yrc78OhU8U-13" value="" style="curved=1;startArrow=none;endArrow=block;exitX=0.5;exitY=0.98;entryX=0.5;entryY=0;rounded=0;fontSize=16;startSize=8;endSize=8;" edge="1" parent="1" source="e5FLebuiL5Yrc78OhU8U-2" target="e5FLebuiL5Yrc78OhU8U-3">
          <mxGeometry relative="1" as="geometry">
            <Array as="points" />
          </mxGeometry>
        </mxCell>
        <mxCell id="e5FLebuiL5Yrc78OhU8U-14" value="" style="curved=1;startArrow=none;endArrow=block;exitX=0.5;exitY=0.99;entryX=0.5;entryY=-0.01;rounded=0;fontSize=16;startSize=8;endSize=8;" edge="1" parent="1" source="e5FLebuiL5Yrc78OhU8U-3" target="e5FLebuiL5Yrc78OhU8U-4">
          <mxGeometry relative="1" as="geometry">
            <Array as="points" />
          </mxGeometry>
        </mxCell>
        <mxCell id="e5FLebuiL5Yrc78OhU8U-15" value="存在" style="curved=0;startArrow=none;endArrow=block;exitX=0.25;exitY=0.98;entryX=0.5;entryY=-0.01;rounded=0;fontSize=16;startSize=8;endSize=8;" edge="1" parent="1" source="e5FLebuiL5Yrc78OhU8U-4" target="e5FLebuiL5Yrc78OhU8U-5">
          <mxGeometry x="-0.0089" relative="1" as="geometry">
            <Array as="points">
              <mxPoint x="103" y="400" />
            </Array>
            <mxPoint as="offset" />
          </mxGeometry>
        </mxCell>
        <mxCell id="e5FLebuiL5Yrc78OhU8U-16" value="不存在" style="curved=0;startArrow=none;endArrow=block;rounded=0;fontSize=16;startSize=8;endSize=8;exitX=1;exitY=0.5;exitDx=0;exitDy=0;" edge="1" parent="1" source="e5FLebuiL5Yrc78OhU8U-4">
          <mxGeometry relative="1" as="geometry">
            <Array as="points" />
            <mxPoint x="261" y="340" as="sourcePoint" />
            <mxPoint x="335" y="345" as="targetPoint" />
          </mxGeometry>
        </mxCell>
        <mxCell id="e5FLebuiL5Yrc78OhU8U-17" value="" style="curved=1;startArrow=none;endArrow=block;exitX=0.5;exitY=0.98;entryX=0.5;entryY=0;rounded=0;fontSize=16;startSize=8;endSize=8;" edge="1" parent="1" source="e5FLebuiL5Yrc78OhU8U-5" target="e5FLebuiL5Yrc78OhU8U-7">
          <mxGeometry relative="1" as="geometry">
            <Array as="points" />
          </mxGeometry>
        </mxCell>
        <mxCell id="e5FLebuiL5Yrc78OhU8U-18" value="" style="curved=1;startArrow=none;endArrow=block;exitX=0.5;exitY=0.99;entryX=0.5;entryY=-0.01;rounded=0;fontSize=16;startSize=8;endSize=8;" edge="1" parent="1" source="e5FLebuiL5Yrc78OhU8U-7" target="e5FLebuiL5Yrc78OhU8U-8">
          <mxGeometry relative="1" as="geometry">
            <Array as="points" />
          </mxGeometry>
        </mxCell>
        <mxCell id="e5FLebuiL5Yrc78OhU8U-19" value="" style="curved=1;startArrow=none;endArrow=block;exitX=0.5;exitY=0.98;entryX=0.5;entryY=0;rounded=0;fontSize=16;startSize=8;endSize=8;" edge="1" parent="1" source="e5FLebuiL5Yrc78OhU8U-8" target="e5FLebuiL5Yrc78OhU8U-9">
          <mxGeometry relative="1" as="geometry">
            <Array as="points" />
          </mxGeometry>
        </mxCell>
        <mxCell id="e5FLebuiL5Yrc78OhU8U-20" value="" style="curved=1;startArrow=none;endArrow=block;exitX=0.5;exitY=0.99;entryX=0.5;entryY=-0.01;rounded=0;fontSize=16;startSize=8;endSize=8;" edge="1" parent="1" source="e5FLebuiL5Yrc78OhU8U-9" target="e5FLebuiL5Yrc78OhU8U-10">
          <mxGeometry relative="1" as="geometry">
            <Array as="points" />
          </mxGeometry>
        </mxCell>
        <mxCell id="e5FLebuiL5Yrc78OhU8U-22" value="不去除rRNA" style="whiteSpace=wrap;strokeWidth=2;fontSize=16;fillColor=#ffcccc;strokeColor=#36393d;" vertex="1" parent="1">
          <mxGeometry x="223.5" y="426" width="111" height="42" as="geometry" />
        </mxCell>
        <mxCell id="e5FLebuiL5Yrc78OhU8U-23" value="用bowtie2比对" style="whiteSpace=wrap;strokeWidth=2;fontSize=16;fillColor=#cce5ff;strokeColor=#36393d;" vertex="1" parent="1">
          <mxGeometry x="211" y="494" width="137" height="42" as="geometry" />
        </mxCell>
        <mxCell id="e5FLebuiL5Yrc78OhU8U-24" value="用STAR比对" style="whiteSpace=wrap;strokeWidth=2;fontSize=16;fillColor=#cdeb8b;strokeColor=#36393d;" vertex="1" parent="1">
          <mxGeometry x="208.5" y="568" width="142" height="42" as="geometry" />
        </mxCell>
        <mxCell id="e5FLebuiL5Yrc78OhU8U-25" value="可视化" style="whiteSpace=wrap;strokeWidth=2;fontSize=16;fillColor=#ffcc99;strokeColor=#36393d;" vertex="1" parent="1">
          <mxGeometry x="225.5" y="637" width="108" height="42" as="geometry" />
        </mxCell>
        <mxCell id="e5FLebuiL5Yrc78OhU8U-26" value="统计分析" style="whiteSpace=wrap;strokeWidth=2;fontSize=16;fillColor=#f9f7ed;strokeColor=#36393d;" vertex="1" parent="1">
          <mxGeometry x="217.5" y="713" width="124" height="42" as="geometry" />
        </mxCell>
        <mxCell id="e5FLebuiL5Yrc78OhU8U-27" value="" style="curved=1;startArrow=none;endArrow=block;exitX=0.5;exitY=0.98;entryX=0.5;entryY=0;rounded=0;fontSize=16;startSize=8;endSize=8;" edge="1" parent="1" source="e5FLebuiL5Yrc78OhU8U-22" target="e5FLebuiL5Yrc78OhU8U-23">
          <mxGeometry relative="1" as="geometry">
            <Array as="points" />
          </mxGeometry>
        </mxCell>
        <mxCell id="e5FLebuiL5Yrc78OhU8U-28" value="" style="curved=1;startArrow=none;endArrow=block;exitX=0.5;exitY=0.99;entryX=0.5;entryY=-0.01;rounded=0;fontSize=16;startSize=8;endSize=8;" edge="1" parent="1" source="e5FLebuiL5Yrc78OhU8U-23" target="e5FLebuiL5Yrc78OhU8U-24">
          <mxGeometry relative="1" as="geometry">
            <Array as="points" />
          </mxGeometry>
        </mxCell>
        <mxCell id="e5FLebuiL5Yrc78OhU8U-29" value="" style="curved=1;startArrow=none;endArrow=block;exitX=0.5;exitY=0.98;entryX=0.5;entryY=0;rounded=0;fontSize=16;startSize=8;endSize=8;" edge="1" parent="1" source="e5FLebuiL5Yrc78OhU8U-24" target="e5FLebuiL5Yrc78OhU8U-25">
          <mxGeometry relative="1" as="geometry">
            <Array as="points" />
          </mxGeometry>
        </mxCell>
        <mxCell id="e5FLebuiL5Yrc78OhU8U-30" value="" style="curved=1;startArrow=none;endArrow=block;exitX=0.5;exitY=0.99;entryX=0.5;entryY=-0.01;rounded=0;fontSize=16;startSize=8;endSize=8;" edge="1" parent="1" source="e5FLebuiL5Yrc78OhU8U-25" target="e5FLebuiL5Yrc78OhU8U-26">
          <mxGeometry relative="1" as="geometry">
            <Array as="points" />
          </mxGeometry>
        </mxCell>
        <mxCell id="e5FLebuiL5Yrc78OhU8U-31" value="存在" style="curved=0;startArrow=none;endArrow=block;exitX=0.75;exitY=1;entryX=0.5;entryY=0;rounded=0;fontSize=16;startSize=8;endSize=8;exitDx=0;exitDy=0;entryDx=0;entryDy=0;" edge="1" parent="1" source="e5FLebuiL5Yrc78OhU8U-4" target="e5FLebuiL5Yrc78OhU8U-22">
          <mxGeometry x="-0.0089" relative="1" as="geometry">
            <Array as="points">
              <mxPoint x="279" y="399" />
            </Array>
            <mxPoint x="164" y="375" as="sourcePoint" />
            <mxPoint x="113" y="447" as="targetPoint" />
            <mxPoint as="offset" />
          </mxGeometry>
        </mxCell>
      </root>
    </mxGraphModel>
  </diagram>
  <diagram id="89X68oI-F-pBSCNVlz1M" name="第 7 页">
    <mxGraphModel dx="866" dy="573" grid="0" gridSize="10" guides="1" tooltips="1" connect="1" arrows="1" fold="1" page="0" pageScale="1" pageWidth="827" pageHeight="1169" math="0" shadow="0">
      <root>
        <mxCell id="0" />
        <mxCell id="1" parent="0" />
        <mxCell id="opTUh_58SZuAkgVJrero-1" value="Heusken,Takayuki dataset" style="whiteSpace=wrap;strokeWidth=2;fontSize=16;fillColor=#b0e3e6;strokeColor=#0e8088;" parent="1" vertex="1">
          <mxGeometry x="367" y="20" width="187" height="49" as="geometry" />
        </mxCell>
        <mxCell id="opTUh_58SZuAkgVJrero-32" value="" style="edgeStyle=none;curved=1;rounded=0;orthogonalLoop=1;jettySize=auto;html=1;fontSize=16;startSize=8;endSize=8;exitX=0.5;exitY=1;exitDx=0;exitDy=0;entryX=0.96;entryY=-0.038;entryDx=0;entryDy=0;entryPerimeter=0;" parent="1" source="opTUh_58SZuAkgVJrero-2" target="opTUh_58SZuAkgVJrero-33" edge="1">
          <mxGeometry relative="1" as="geometry">
            <mxPoint x="162" y="235" as="targetPoint" />
          </mxGeometry>
        </mxCell>
        <mxCell id="opTUh_58SZuAkgVJrero-2" value=" 准确率、精确率、召回率、F1分数、ROC和PR曲线" style="whiteSpace=wrap;strokeWidth=2;fontSize=16;fillColor=#fad7ac;strokeColor=#b46504;" parent="1" vertex="1">
          <mxGeometry x="253" y="128" width="200" height="68" as="geometry" />
        </mxCell>
        <mxCell id="opTUh_58SZuAkgVJrero-3" value="均方误差（MSE）、均方根误差（RMSE）、平均绝对误差（MAE）" style="whiteSpace=wrap;strokeWidth=2;fontSize=16;fillColor=#b1ddf0;strokeColor=#10739e;" parent="1" vertex="1">
          <mxGeometry x="467" y="128" width="247" height="68" as="geometry" />
        </mxCell>
        <mxCell id="opTUh_58SZuAkgVJrero-37" value="" style="edgeStyle=none;curved=1;rounded=0;orthogonalLoop=1;jettySize=auto;html=1;fontSize=12;startSize=8;endSize=8;exitX=0;exitY=1;exitDx=0;exitDy=0;" parent="1" source="opTUh_58SZuAkgVJrero-4" edge="1">
          <mxGeometry relative="1" as="geometry">
            <mxPoint x="463" y="342" as="targetPoint" />
          </mxGeometry>
        </mxCell>
        <mxCell id="opTUh_58SZuAkgVJrero-4" value="Testing set (249)&#xa;(Postive 135 sequences,&#xa;Nagetive 114 sequences)" style="whiteSpace=wrap;strokeWidth=2;fontSize=16;fillColor=#bac8d3;strokeColor=#23445d;" parent="1" vertex="1">
          <mxGeometry x="463" y="235" width="200" height="79" as="geometry" />
        </mxCell>
        <mxCell id="opTUh_58SZuAkgVJrero-11" value="训练模型" style="whiteSpace=wrap;strokeWidth=2;fontSize=16;fillColor=#e1d5e7;strokeColor=#9673a6;" parent="1" vertex="1">
          <mxGeometry x="401" y="342" width="124" height="49" as="geometry" />
        </mxCell>
        <mxCell id="opTUh_58SZuAkgVJrero-13" value="特征选择" style="whiteSpace=wrap;strokeWidth=2;fontSize=16;fillColor=#dae8fc;strokeColor=#6c8ebf;" parent="1" vertex="1">
          <mxGeometry x="401" y="442" width="124" height="49" as="geometry" />
        </mxCell>
        <mxCell id="opTUh_58SZuAkgVJrero-15" value="分类任务" style="curved=0;startArrow=none;endArrow=block;entryX=0.5;entryY=0;rounded=0;fontSize=16;startSize=8;endSize=8;" parent="1" target="opTUh_58SZuAkgVJrero-2" edge="1">
          <mxGeometry relative="1" as="geometry">
            <Array as="points" />
            <mxPoint x="454" y="68" as="sourcePoint" />
          </mxGeometry>
        </mxCell>
        <mxCell id="opTUh_58SZuAkgVJrero-16" value="回归任务" style="curved=0;startArrow=none;endArrow=block;exitX=0.5;exitY=1;entryX=0.5;entryY=0;rounded=0;fontSize=16;startSize=8;endSize=8;exitDx=0;exitDy=0;" parent="1" source="opTUh_58SZuAkgVJrero-1" target="opTUh_58SZuAkgVJrero-3" edge="1">
          <mxGeometry relative="1" as="geometry">
            <Array as="points" />
          </mxGeometry>
        </mxCell>
        <mxCell id="opTUh_58SZuAkgVJrero-17" value="" style="curved=0;startArrow=none;endArrow=block;rounded=0;fontSize=16;startSize=8;endSize=8;exitX=0.5;exitY=1;exitDx=0;exitDy=0;" parent="1" source="opTUh_58SZuAkgVJrero-3" edge="1">
          <mxGeometry relative="1" as="geometry">
            <Array as="points" />
            <mxPoint x="356" y="172" as="sourcePoint" />
            <mxPoint x="472" y="232" as="targetPoint" />
          </mxGeometry>
        </mxCell>
        <mxCell id="opTUh_58SZuAkgVJrero-29" value="评估性能&#xa;" style="curved=1;startArrow=none;endArrow=block;exitX=0.5;exitY=0.99;entryX=0.5;entryY=0;rounded=0;fontSize=16;startSize=8;endSize=8;" parent="1" source="opTUh_58SZuAkgVJrero-11" target="opTUh_58SZuAkgVJrero-13" edge="1">
          <mxGeometry x="0.2549" relative="1" as="geometry">
            <Array as="points" />
            <mxPoint as="offset" />
          </mxGeometry>
        </mxCell>
        <mxCell id="opTUh_58SZuAkgVJrero-33" value="Training set (2182)&#xa;(Postive 1087 sequences,&#xa;Nagetive 1095 sequences)&#xa;Activity cutoff 0.7" style="whiteSpace=wrap;strokeWidth=2;fontSize=16;fillColor=#fad9d5;strokeColor=#ae4132;" parent="1" vertex="1">
          <mxGeometry x="263" y="235" width="200" height="79" as="geometry" />
        </mxCell>
      </root>
    </mxGraphModel>
  </diagram>
  <diagram id="kEtjHmdzaZ91VIOw6kr_" name="第 9 页">
    <mxGraphModel dx="1247" dy="573" grid="0" gridSize="10" guides="1" tooltips="1" connect="1" arrows="1" fold="1" page="0" pageScale="1" pageWidth="1169" pageHeight="1654" math="0" shadow="0">
      <root>
        <mxCell id="0" />
        <mxCell id="1" parent="0" />
        <mxCell id="gLdNqgYUt0AVa4dpB5Lb-2" value="样品准备" style="whiteSpace=wrap;strokeWidth=2;fontSize=16;fillColor=#f9f7ed;strokeColor=#36393d;" vertex="1" parent="1">
          <mxGeometry x="51.5" y="132" width="124" height="49" as="geometry" />
        </mxCell>
        <mxCell id="NIGfgfirsoUfe6pK1798-3" value="" style="edgeStyle=none;curved=1;rounded=0;orthogonalLoop=1;jettySize=auto;html=1;fontSize=12;startSize=8;endSize=8;" edge="1" parent="1" source="gLdNqgYUt0AVa4dpB5Lb-3" target="gLdNqgYUt0AVa4dpB5Lb-28">
          <mxGeometry relative="1" as="geometry" />
        </mxCell>
        <mxCell id="gLdNqgYUt0AVa4dpB5Lb-3" value="Ribo-seq文库构建" style="whiteSpace=wrap;strokeWidth=2;fontSize=16;fillColor=#ffcc99;strokeColor=#36393d;" vertex="1" parent="1">
          <mxGeometry x="29" y="217" width="169" height="49" as="geometry" />
        </mxCell>
        <mxCell id="gLdNqgYUt0AVa4dpB5Lb-5" value="测序数据预处理" style="whiteSpace=wrap;strokeWidth=2;fontSize=16;align=center;fillColor=#eeeeee;strokeColor=#36393d;" vertex="1" parent="1">
          <mxGeometry x="28" y="342" width="172" height="49" as="geometry" />
        </mxCell>
        <mxCell id="NIGfgfirsoUfe6pK1798-23" value="" style="edgeStyle=none;curved=1;rounded=0;orthogonalLoop=1;jettySize=auto;html=1;fontSize=12;startSize=8;endSize=8;exitX=0.545;exitY=0.929;exitDx=0;exitDy=0;exitPerimeter=0;" edge="1" parent="1">
          <mxGeometry relative="1" as="geometry">
            <mxPoint x="113.9975000000001" y="467.001" as="sourcePoint" />
            <mxPoint x="212.92" y="496.48" as="targetPoint" />
          </mxGeometry>
        </mxCell>
        <mxCell id="gLdNqgYUt0AVa4dpB5Lb-6" value="STAR比对基因组/转录组" style="whiteSpace=wrap;strokeWidth=2;fontSize=16;align=center;fillColor=#ffff88;strokeColor=#36393d;" vertex="1" parent="1">
          <mxGeometry x="24.25" y="420" width="179.5" height="49" as="geometry" />
        </mxCell>
        <mxCell id="gLdNqgYUt0AVa4dpB5Lb-7" value="RiboTaper识别ORF,确定P-site" style="whiteSpace=wrap;strokeWidth=2;fontSize=16;align=center;fillColor=#cdeb8b;strokeColor=#36393d;" vertex="1" parent="1">
          <mxGeometry x="-58.5" y="498" width="157" height="49" as="geometry" />
        </mxCell>
        <mxCell id="gLdNqgYUt0AVa4dpB5Lb-8" value="计算ORF翻译效率, 秩和检验" style="whiteSpace=wrap;strokeWidth=2;fontSize=16;align=center;fillColor=#cce5ff;strokeColor=#36393d;" vertex="1" parent="1">
          <mxGeometry x="-55.250000000000014" y="586" width="150.5" height="49" as="geometry" />
        </mxCell>
        <mxCell id="gLdNqgYUt0AVa4dpB5Lb-9" value="RiboPlotR数据可视化" style="whiteSpace=wrap;strokeWidth=2;fontSize=16;align=center;fillColor=#ffcccc;strokeColor=#36393d;" vertex="1" parent="1">
          <mxGeometry x="-61.00000000000001" y="664" width="162" height="49" as="geometry" />
        </mxCell>
        <mxCell id="gLdNqgYUt0AVa4dpB5Lb-15" value="" style="curved=1;startArrow=none;endArrow=block;exitX=0.5;exitY=0.98;entryX=0.5;entryY=0;rounded=0;fontSize=16;startSize=8;endSize=8;" edge="1" parent="1" source="gLdNqgYUt0AVa4dpB5Lb-2" target="gLdNqgYUt0AVa4dpB5Lb-3">
          <mxGeometry relative="1" as="geometry">
            <Array as="points" />
          </mxGeometry>
        </mxCell>
        <mxCell id="gLdNqgYUt0AVa4dpB5Lb-17" value="" style="curved=1;startArrow=none;endArrow=block;exitX=0.5;exitY=0.98;entryX=0.5;entryY=0;rounded=0;fontSize=16;startSize=8;endSize=8;" edge="1" parent="1" target="gLdNqgYUt0AVa4dpB5Lb-5">
          <mxGeometry relative="1" as="geometry">
            <Array as="points" />
            <mxPoint x="114" y="264" as="sourcePoint" />
          </mxGeometry>
        </mxCell>
        <mxCell id="gLdNqgYUt0AVa4dpB5Lb-18" value="" style="curved=1;startArrow=none;endArrow=block;exitX=0.5;exitY=0.99;entryX=0.5;entryY=-0.01;rounded=0;fontSize=16;startSize=8;endSize=8;" edge="1" parent="1" source="gLdNqgYUt0AVa4dpB5Lb-5" target="gLdNqgYUt0AVa4dpB5Lb-6">
          <mxGeometry relative="1" as="geometry">
            <Array as="points" />
          </mxGeometry>
        </mxCell>
        <mxCell id="gLdNqgYUt0AVa4dpB5Lb-19" value="" style="curved=1;startArrow=none;endArrow=block;rounded=0;fontSize=16;startSize=8;endSize=8;exitX=0.5;exitY=1;exitDx=0;exitDy=0;" edge="1" parent="1" source="gLdNqgYUt0AVa4dpB5Lb-6">
          <mxGeometry relative="1" as="geometry">
            <Array as="points" />
            <mxPoint x="119" y="471" as="sourcePoint" />
            <mxPoint x="15.870000000000001" y="496" as="targetPoint" />
          </mxGeometry>
        </mxCell>
        <mxCell id="gLdNqgYUt0AVa4dpB5Lb-20" value="" style="curved=1;startArrow=none;endArrow=block;exitX=0.5;exitY=0.99;entryX=0.5;entryY=-0.01;rounded=0;fontSize=16;startSize=8;endSize=8;" edge="1" parent="1" source="gLdNqgYUt0AVa4dpB5Lb-7" target="gLdNqgYUt0AVa4dpB5Lb-8">
          <mxGeometry relative="1" as="geometry">
            <Array as="points" />
          </mxGeometry>
        </mxCell>
        <mxCell id="gLdNqgYUt0AVa4dpB5Lb-21" value="" style="curved=1;startArrow=none;endArrow=block;exitX=0.5;exitY=0.98;entryX=0.5;entryY=0;rounded=0;fontSize=16;startSize=8;endSize=8;" edge="1" parent="1" source="gLdNqgYUt0AVa4dpB5Lb-8" target="gLdNqgYUt0AVa4dpB5Lb-9">
          <mxGeometry relative="1" as="geometry">
            <Array as="points" />
          </mxGeometry>
        </mxCell>
        <mxCell id="gLdNqgYUt0AVa4dpB5Lb-27" value="去除rRNA、tRNA、snRNA和snoRNA污染" style="whiteSpace=wrap;strokeWidth=2;fontSize=16;fillColor=#d0cee2;strokeColor=#56517e;" vertex="1" parent="1">
          <mxGeometry x="262" y="344" width="170" height="49" as="geometry" />
        </mxCell>
        <mxCell id="gLdNqgYUt0AVa4dpB5Lb-28" value="1) TruSeq Ribo Profile Kit&#xa;2) RiboZero Plant Leaf Kit" style="whiteSpace=wrap;strokeWidth=2;fontSize=16;fillColor=#b0e3e6;strokeColor=#0e8088;" vertex="1" parent="1">
          <mxGeometry x="237" y="217" width="214" height="49" as="geometry" />
        </mxCell>
        <mxCell id="P-FQawZiNFTsKYPQkCY9-1" value="RiboseQC数据质控" style="whiteSpace=wrap;strokeWidth=2;fontSize=16;fillColor=#fad7ac;strokeColor=#b46504;" vertex="1" parent="1">
          <mxGeometry x="265.55" y="416" width="164.45" height="38" as="geometry" />
        </mxCell>
        <mxCell id="NIGfgfirsoUfe6pK1798-4" value="FASTX去除接头" style="whiteSpace=wrap;strokeWidth=2;fontSize=16;fillColor=#bac8d3;strokeColor=#23445d;" vertex="1" parent="1">
          <mxGeometry x="262" y="286" width="168" height="38" as="geometry" />
        </mxCell>
        <mxCell id="NIGfgfirsoUfe6pK1798-8" value="" style="shape=curlyBracket;whiteSpace=wrap;html=1;rounded=1;labelPosition=left;verticalLabelPosition=middle;align=right;verticalAlign=middle;size=0.5;" vertex="1" parent="1">
          <mxGeometry x="199.13" y="296" width="55.5" height="151.5" as="geometry" />
        </mxCell>
        <mxCell id="NIGfgfirsoUfe6pK1798-12" value="Ribocode识别ORF,确定P-site" style="whiteSpace=wrap;strokeWidth=2;fontSize=16;align=center;fillColor=#cdeb8b;strokeColor=#36393d;" vertex="1" parent="1">
          <mxGeometry x="163.495" y="498" width="151.01" height="49" as="geometry" />
        </mxCell>
        <mxCell id="NIGfgfirsoUfe6pK1798-13" value="Xtail对翻译效率进行差异检验" style="whiteSpace=wrap;strokeWidth=2;fontSize=16;align=center;fillColor=#cce5ff;strokeColor=#36393d;" vertex="1" parent="1">
          <mxGeometry x="163.75" y="584" width="150.5" height="49" as="geometry" />
        </mxCell>
        <mxCell id="NIGfgfirsoUfe6pK1798-14" value="riboSeqR数据可视化" style="whiteSpace=wrap;strokeWidth=2;fontSize=16;align=center;fillColor=#ffcccc;strokeColor=#36393d;" vertex="1" parent="1">
          <mxGeometry x="158" y="662" width="162" height="49" as="geometry" />
        </mxCell>
        <mxCell id="NIGfgfirsoUfe6pK1798-15" value="" style="curved=1;startArrow=none;endArrow=block;exitX=0.5;exitY=0.99;entryX=0.5;entryY=-0.01;rounded=0;fontSize=16;startSize=8;endSize=8;" edge="1" parent="1" source="NIGfgfirsoUfe6pK1798-12" target="NIGfgfirsoUfe6pK1798-13">
          <mxGeometry relative="1" as="geometry">
            <Array as="points" />
          </mxGeometry>
        </mxCell>
        <mxCell id="NIGfgfirsoUfe6pK1798-22" value="" style="curved=1;startArrow=none;endArrow=block;exitX=0.5;exitY=0.98;entryX=0.5;entryY=0;rounded=0;fontSize=16;startSize=8;endSize=8;" edge="1" parent="1">
          <mxGeometry relative="1" as="geometry">
            <Array as="points" />
            <mxPoint x="238.5" y="633" as="sourcePoint" />
            <mxPoint x="238.5" y="662" as="targetPoint" />
          </mxGeometry>
        </mxCell>
      </root>
    </mxGraphModel>
  </diagram>
  <diagram id="bQmycftGNziyRyARmtdz" name="第 8 页">
    <mxGraphModel dx="1266" dy="173" grid="0" gridSize="10" guides="1" tooltips="1" connect="1" arrows="1" fold="1" page="0" pageScale="1" pageWidth="1169" pageHeight="1654" math="0" shadow="0">
      <root>
        <mxCell id="0" />
        <mxCell id="1" parent="0" />
        <mxCell id="sLDRpLIOfWpCfqVgzE6W-2" value="原始数据" style="whiteSpace=wrap;strokeWidth=2;imageHeight=16;imageWidth=24;fontSize=16;fillColor=#cce5ff;strokeColor=#36393d;" parent="1" vertex="1">
          <mxGeometry x="-304" y="575" width="120" height="49" as="geometry" />
        </mxCell>
        <mxCell id="sLDRpLIOfWpCfqVgzE6W-3" value="cutadapt去除Tru-seq接头" style="whiteSpace=wrap;strokeWidth=2;fontSize=16;fillColor=#eeeeee;strokeColor=#36393d;" parent="1" vertex="1">
          <mxGeometry x="-306" y="652" width="124" height="49" as="geometry" />
        </mxCell>
        <mxCell id="sLDRpLIOfWpCfqVgzE6W-4" value="Fastqc 质控" style="whiteSpace=wrap;strokeWidth=2;fontSize=16;fillColor=#ffff88;strokeColor=#36393d;" parent="1" vertex="1">
          <mxGeometry x="-310" y="728" width="132" height="49" as="geometry" />
        </mxCell>
        <mxCell id="sLDRpLIOfWpCfqVgzE6W-5" value="fastq-multx 根据barcode拆分样品" style="whiteSpace=wrap;strokeWidth=2;fontSize=16;fillColor=#cdeb8b;strokeColor=#36393d;" parent="1" vertex="1">
          <mxGeometry x="-317" y="808" width="146" height="49" as="geometry" />
        </mxCell>
        <mxCell id="sLDRpLIOfWpCfqVgzE6W-6" value="seqkit去除PCR重复" style="whiteSpace=wrap;strokeWidth=2;fontSize=16;fillColor=#ffcd28;gradientColor=#ffa500;strokeColor=#d79b00;" parent="1" vertex="1">
          <mxGeometry x="141.5" y="523" width="106" height="49" as="geometry" />
        </mxCell>
        <mxCell id="sLDRpLIOfWpCfqVgzE6W-7" value="umi_extract 提取UMI和linker序列" style="whiteSpace=wrap;strokeWidth=2;fontSize=16;fillColor=#b0e3e6;strokeColor=#0e8088;" parent="1" vertex="1">
          <mxGeometry x="121" y="604" width="147" height="49" as="geometry" />
        </mxCell>
        <mxCell id="sLDRpLIOfWpCfqVgzE6W-8" value="hisat2 比对参考序列" style="whiteSpace=wrap;strokeWidth=2;fontSize=16;fillColor=#fad7ac;strokeColor=#b46504;" parent="1" vertex="1">
          <mxGeometry x="108" y="693" width="172" height="49" as="geometry" />
        </mxCell>
        <mxCell id="sLDRpLIOfWpCfqVgzE6W-9" value="过滤未比对上的reads" style="whiteSpace=wrap;strokeWidth=2;fontSize=16;fillColor=#d0cee2;strokeColor=#56517e;" parent="1" vertex="1">
          <mxGeometry x="122" y="791" width="144" height="49" as="geometry" />
        </mxCell>
        <mxCell id="sLDRpLIOfWpCfqVgzE6W-14" value="" style="curved=1;startArrow=none;endArrow=block;exitX=0.5;exitY=0.98;entryX=0.5;entryY=0;rounded=0;fontSize=16;startSize=8;endSize=8;" parent="1" source="sLDRpLIOfWpCfqVgzE6W-2" target="sLDRpLIOfWpCfqVgzE6W-3" edge="1">
          <mxGeometry relative="1" as="geometry">
            <Array as="points" />
          </mxGeometry>
        </mxCell>
        <mxCell id="sLDRpLIOfWpCfqVgzE6W-15" value="" style="curved=1;startArrow=none;endArrow=block;exitX=0.5;exitY=0.99;entryX=0.5;entryY=-0.01;rounded=0;fontSize=16;startSize=8;endSize=8;" parent="1" source="sLDRpLIOfWpCfqVgzE6W-3" target="sLDRpLIOfWpCfqVgzE6W-4" edge="1">
          <mxGeometry relative="1" as="geometry">
            <Array as="points" />
          </mxGeometry>
        </mxCell>
        <mxCell id="sLDRpLIOfWpCfqVgzE6W-16" value="" style="curved=1;startArrow=none;endArrow=block;exitX=0.5;exitY=0.98;entryX=0.5;entryY=0;rounded=0;fontSize=16;startSize=8;endSize=8;" parent="1" source="sLDRpLIOfWpCfqVgzE6W-4" target="sLDRpLIOfWpCfqVgzE6W-5" edge="1">
          <mxGeometry relative="1" as="geometry">
            <Array as="points" />
          </mxGeometry>
        </mxCell>
        <mxCell id="sLDRpLIOfWpCfqVgzE6W-18" value="" style="curved=1;startArrow=none;endArrow=block;exitX=0.5;exitY=0.98;entryX=0.5;entryY=0;rounded=0;fontSize=16;startSize=8;endSize=8;" parent="1" source="sLDRpLIOfWpCfqVgzE6W-6" target="sLDRpLIOfWpCfqVgzE6W-7" edge="1">
          <mxGeometry relative="1" as="geometry">
            <Array as="points" />
          </mxGeometry>
        </mxCell>
        <mxCell id="sLDRpLIOfWpCfqVgzE6W-19" value="" style="curved=1;startArrow=none;endArrow=block;exitX=0.5;exitY=0.99;entryX=0.5;entryY=-0.01;rounded=0;fontSize=16;startSize=8;endSize=8;" parent="1" source="sLDRpLIOfWpCfqVgzE6W-7" target="sLDRpLIOfWpCfqVgzE6W-8" edge="1">
          <mxGeometry relative="1" as="geometry">
            <Array as="points" />
          </mxGeometry>
        </mxCell>
        <mxCell id="sLDRpLIOfWpCfqVgzE6W-20" value="" style="curved=1;startArrow=none;endArrow=block;exitX=0.5;exitY=0.98;entryX=0.5;entryY=0;rounded=0;fontSize=16;startSize=8;endSize=8;" parent="1" source="sLDRpLIOfWpCfqVgzE6W-8" target="sLDRpLIOfWpCfqVgzE6W-9" edge="1">
          <mxGeometry relative="1" as="geometry">
            <Array as="points" />
          </mxGeometry>
        </mxCell>
        <mxCell id="oFE6XlQUCoORE7myHL3x-1" value="不去PCR重复" style="whiteSpace=wrap;strokeWidth=2;fontSize=16;fillColor=#f8cecc;gradientColor=#ea6b66;strokeColor=#b85450;" vertex="1" parent="1">
          <mxGeometry x="-60.5" y="523" width="106" height="49" as="geometry" />
        </mxCell>
        <mxCell id="oFE6XlQUCoORE7myHL3x-2" value="umi_extract 提取 linker序列" style="whiteSpace=wrap;strokeWidth=2;fontSize=16;fillColor=#b0e3e6;strokeColor=#0e8088;" vertex="1" parent="1">
          <mxGeometry x="-81" y="604" width="147" height="49" as="geometry" />
        </mxCell>
        <mxCell id="oFE6XlQUCoORE7myHL3x-3" value="hisat2 比对参考序列" style="whiteSpace=wrap;strokeWidth=2;fontSize=16;fillColor=#fad7ac;strokeColor=#b46504;" vertex="1" parent="1">
          <mxGeometry x="-94" y="693" width="172" height="49" as="geometry" />
        </mxCell>
        <mxCell id="oFE6XlQUCoORE7myHL3x-4" value="过滤未比对上的reads" style="whiteSpace=wrap;strokeWidth=2;fontSize=16;fillColor=#d0cee2;strokeColor=#56517e;" vertex="1" parent="1">
          <mxGeometry x="-79.5" y="793" width="144" height="49" as="geometry" />
        </mxCell>
        <mxCell id="oFE6XlQUCoORE7myHL3x-5" value="解析pileup" style="whiteSpace=wrap;strokeWidth=2;fontSize=16;fillColor=#ffcccc;strokeColor=#36393d;" vertex="1" parent="1">
          <mxGeometry x="-67.5" y="873" width="120" height="49" as="geometry" />
        </mxCell>
        <mxCell id="oFE6XlQUCoORE7myHL3x-6" value="" style="curved=1;startArrow=none;endArrow=block;exitX=0.5;exitY=0.98;entryX=0.5;entryY=0;rounded=0;fontSize=16;startSize=8;endSize=8;" edge="1" parent="1" source="oFE6XlQUCoORE7myHL3x-1" target="oFE6XlQUCoORE7myHL3x-2">
          <mxGeometry relative="1" as="geometry">
            <Array as="points" />
          </mxGeometry>
        </mxCell>
        <mxCell id="oFE6XlQUCoORE7myHL3x-7" value="" style="curved=1;startArrow=none;endArrow=block;exitX=0.5;exitY=0.99;entryX=0.5;entryY=-0.01;rounded=0;fontSize=16;startSize=8;endSize=8;" edge="1" parent="1" source="oFE6XlQUCoORE7myHL3x-2" target="oFE6XlQUCoORE7myHL3x-3">
          <mxGeometry relative="1" as="geometry">
            <Array as="points" />
          </mxGeometry>
        </mxCell>
        <mxCell id="oFE6XlQUCoORE7myHL3x-8" value="" style="curved=1;startArrow=none;endArrow=block;exitX=0.5;exitY=0.98;entryX=0.5;entryY=0;rounded=0;fontSize=16;startSize=8;endSize=8;" edge="1" parent="1" source="oFE6XlQUCoORE7myHL3x-3" target="oFE6XlQUCoORE7myHL3x-4">
          <mxGeometry relative="1" as="geometry">
            <Array as="points" />
          </mxGeometry>
        </mxCell>
        <mxCell id="oFE6XlQUCoORE7myHL3x-9" value="" style="curved=1;startArrow=none;endArrow=block;exitX=0.5;exitY=0.99;entryX=0.5;entryY=-0.01;rounded=0;fontSize=16;startSize=8;endSize=8;" edge="1" parent="1" source="oFE6XlQUCoORE7myHL3x-4" target="oFE6XlQUCoORE7myHL3x-5">
          <mxGeometry relative="1" as="geometry">
            <Array as="points" />
          </mxGeometry>
        </mxCell>
        <mxCell id="oFE6XlQUCoORE7myHL3x-19" value="seqkit去除PCR重复" style="whiteSpace=wrap;strokeWidth=2;fontSize=16;fillColor=#ffcd28;gradientColor=#ffa500;strokeColor=#d79b00;" vertex="1" parent="1">
          <mxGeometry x="338.5" y="523" width="106" height="49" as="geometry" />
        </mxCell>
        <mxCell id="oFE6XlQUCoORE7myHL3x-20" value="umi_extract 提取UMI和linker序列" style="whiteSpace=wrap;strokeWidth=2;fontSize=16;fillColor=#b0e3e6;strokeColor=#0e8088;" vertex="1" parent="1">
          <mxGeometry x="318" y="604" width="147" height="49" as="geometry" />
        </mxCell>
        <mxCell id="oFE6XlQUCoORE7myHL3x-21" value="hisat2 比对参考序列" style="whiteSpace=wrap;strokeWidth=2;fontSize=16;fillColor=#fad7ac;strokeColor=#b46504;" vertex="1" parent="1">
          <mxGeometry x="305" y="693" width="172" height="49" as="geometry" />
        </mxCell>
        <mxCell id="oFE6XlQUCoORE7myHL3x-22" value="过滤未比对上的reads" style="whiteSpace=wrap;strokeWidth=2;fontSize=16;fillColor=#d0cee2;strokeColor=#56517e;" vertex="1" parent="1">
          <mxGeometry x="319" y="766" width="144" height="49" as="geometry" />
        </mxCell>
        <mxCell id="oFE6XlQUCoORE7myHL3x-23" value="realign: 自定义Matrix对T deletion重新打分" style="whiteSpace=wrap;strokeWidth=2;fontSize=16;fillColor=#fff2cc;strokeColor=#d6b656;" vertex="1" parent="1">
          <mxGeometry x="294.5" y="835" width="194" height="49" as="geometry" />
        </mxCell>
        <mxCell id="oFE6XlQUCoORE7myHL3x-24" value="" style="curved=1;startArrow=none;endArrow=block;exitX=0.5;exitY=0.98;entryX=0.5;entryY=0;rounded=0;fontSize=16;startSize=8;endSize=8;" edge="1" parent="1" source="oFE6XlQUCoORE7myHL3x-19" target="oFE6XlQUCoORE7myHL3x-20">
          <mxGeometry relative="1" as="geometry">
            <Array as="points" />
          </mxGeometry>
        </mxCell>
        <mxCell id="oFE6XlQUCoORE7myHL3x-25" value="" style="curved=1;startArrow=none;endArrow=block;exitX=0.5;exitY=0.99;entryX=0.5;entryY=-0.01;rounded=0;fontSize=16;startSize=8;endSize=8;" edge="1" parent="1" source="oFE6XlQUCoORE7myHL3x-20" target="oFE6XlQUCoORE7myHL3x-21">
          <mxGeometry relative="1" as="geometry">
            <Array as="points" />
          </mxGeometry>
        </mxCell>
        <mxCell id="oFE6XlQUCoORE7myHL3x-26" value="" style="curved=1;startArrow=none;endArrow=block;exitX=0.5;exitY=0.98;entryX=0.5;entryY=0;rounded=0;fontSize=16;startSize=8;endSize=8;" edge="1" parent="1" source="oFE6XlQUCoORE7myHL3x-21" target="oFE6XlQUCoORE7myHL3x-22">
          <mxGeometry relative="1" as="geometry">
            <Array as="points" />
          </mxGeometry>
        </mxCell>
        <mxCell id="oFE6XlQUCoORE7myHL3x-28" value="移除多重比对和末端是T的reads" style="whiteSpace=wrap;strokeWidth=2;fontSize=16;fillColor=#d5e8d4;strokeColor=#82b366;" vertex="1" parent="1">
          <mxGeometry x="511" y="835" width="144" height="49" as="geometry" />
        </mxCell>
        <mxCell id="oFE6XlQUCoORE7myHL3x-29" value="解析pileup" style="whiteSpace=wrap;strokeWidth=2;fontSize=16;fillColor=#ffcccc;strokeColor=#36393d;" vertex="1" parent="1">
          <mxGeometry x="522.5" y="911" width="121" height="49" as="geometry" />
        </mxCell>
        <mxCell id="oFE6XlQUCoORE7myHL3x-30" value="" style="curved=1;startArrow=none;endArrow=block;exitX=0.5;exitY=0.99;entryX=0.5;entryY=-0.01;rounded=0;fontSize=16;startSize=8;endSize=8;" edge="1" parent="1" source="oFE6XlQUCoORE7myHL3x-28" target="oFE6XlQUCoORE7myHL3x-29">
          <mxGeometry relative="1" as="geometry">
            <Array as="points" />
          </mxGeometry>
        </mxCell>
        <mxCell id="Xv1abYWI37Drpk9fYTw_-4" value="解析pileup" style="whiteSpace=wrap;strokeWidth=2;fontSize=16;fillColor=#ffcccc;strokeColor=#36393d;" vertex="1" parent="1">
          <mxGeometry x="134" y="871" width="120" height="49" as="geometry" />
        </mxCell>
        <mxCell id="Xv1abYWI37Drpk9fYTw_-5" value="" style="curved=1;startArrow=none;endArrow=block;exitX=0.5;exitY=0.99;entryX=0.5;entryY=-0.01;rounded=0;fontSize=16;startSize=8;endSize=8;" edge="1" parent="1" target="Xv1abYWI37Drpk9fYTw_-4">
          <mxGeometry relative="1" as="geometry">
            <Array as="points" />
            <mxPoint x="194.5" y="840" as="sourcePoint" />
          </mxGeometry>
        </mxCell>
        <mxCell id="Xv1abYWI37Drpk9fYTw_-7" value="" style="curved=1;startArrow=none;endArrow=block;exitX=0.5;exitY=1;rounded=0;fontSize=16;startSize=8;endSize=8;exitDx=0;exitDy=0;entryX=0.5;entryY=0;entryDx=0;entryDy=0;" edge="1" parent="1" source="oFE6XlQUCoORE7myHL3x-22" target="oFE6XlQUCoORE7myHL3x-23">
          <mxGeometry relative="1" as="geometry">
            <Array as="points" />
            <mxPoint x="401" y="752" as="sourcePoint" />
            <mxPoint x="398" y="837" as="targetPoint" />
          </mxGeometry>
        </mxCell>
        <mxCell id="Xv1abYWI37Drpk9fYTw_-9" value="" style="edgeStyle=elbowEdgeStyle;elbow=horizontal;endArrow=classic;html=1;curved=0;rounded=0;endSize=8;startSize=8;fontSize=12;exitX=1;exitY=0.5;exitDx=0;exitDy=0;entryX=0;entryY=0.5;entryDx=0;entryDy=0;strokeWidth=1.3;" edge="1" parent="1" source="sLDRpLIOfWpCfqVgzE6W-5" target="oFE6XlQUCoORE7myHL3x-1">
          <mxGeometry width="50" height="50" relative="1" as="geometry">
            <mxPoint x="32" y="770" as="sourcePoint" />
            <mxPoint x="82" y="720" as="targetPoint" />
            <Array as="points">
              <mxPoint x="-131" y="690" />
            </Array>
          </mxGeometry>
        </mxCell>
        <mxCell id="Xv1abYWI37Drpk9fYTw_-11" value="" style="edgeStyle=segmentEdgeStyle;endArrow=classic;html=1;curved=0;rounded=0;endSize=8;startSize=8;fontSize=12;entryX=0.5;entryY=0;entryDx=0;entryDy=0;" edge="1" parent="1">
          <mxGeometry width="50" height="50" relative="1" as="geometry">
            <mxPoint x="-131" y="551" as="sourcePoint" />
            <mxPoint x="195.5" y="523" as="targetPoint" />
            <Array as="points">
              <mxPoint x="-131" y="548" />
              <mxPoint x="-131" y="491" />
              <mxPoint x="196" y="491" />
            </Array>
          </mxGeometry>
        </mxCell>
        <mxCell id="Xv1abYWI37Drpk9fYTw_-12" value="" style="edgeStyle=segmentEdgeStyle;endArrow=classic;html=1;curved=0;rounded=0;endSize=8;startSize=8;fontSize=12;strokeWidth=1.3;" edge="1" parent="1">
          <mxGeometry width="50" height="50" relative="1" as="geometry">
            <mxPoint x="-131" y="551" as="sourcePoint" />
            <mxPoint x="394" y="523" as="targetPoint" />
            <Array as="points">
              <mxPoint x="-131" y="491" />
              <mxPoint x="394" y="491" />
            </Array>
          </mxGeometry>
        </mxCell>
        <mxCell id="Xv1abYWI37Drpk9fYTw_-13" value="PRAISE" style="edgeLabel;html=1;align=center;verticalAlign=middle;resizable=0;points=[];fontSize=12;" vertex="1" connectable="0" parent="Xv1abYWI37Drpk9fYTw_-12">
          <mxGeometry x="0.8067" y="3" relative="1" as="geometry">
            <mxPoint x="-68" y="2" as="offset" />
          </mxGeometry>
        </mxCell>
        <mxCell id="Xv1abYWI37Drpk9fYTw_-14" value="" style="endArrow=classic;html=1;rounded=0;fontSize=12;startSize=8;endSize=8;curved=1;entryX=0.007;entryY=0.388;entryDx=0;entryDy=0;entryPerimeter=0;exitX=0.997;exitY=0.388;exitDx=0;exitDy=0;exitPerimeter=0;" edge="1" parent="1" source="oFE6XlQUCoORE7myHL3x-23" target="oFE6XlQUCoORE7myHL3x-28">
          <mxGeometry width="50" height="50" relative="1" as="geometry">
            <mxPoint x="208" y="764" as="sourcePoint" />
            <mxPoint x="258" y="714" as="targetPoint" />
          </mxGeometry>
        </mxCell>
      </root>
    </mxGraphModel>
  </diagram>
  <diagram id="f-9-Y6Tq0a3xipoqNiaA" name="第 10 页">
    <mxGraphModel dx="847" dy="973" grid="0" gridSize="10" guides="1" tooltips="1" connect="1" arrows="1" fold="1" page="0" pageScale="1" pageWidth="1169" pageHeight="1654" math="0" shadow="0">
      <root>
        <mxCell id="0" />
        <mxCell id="1" parent="0" />
        <mxCell id="0fRe1qh-qlhCybTGsSTT-31" value="培养F. graminearum，&#xa;收集分泌蛋白" style="whiteSpace=wrap;strokeWidth=2;fontSize=16;fillColor=#cce5ff;strokeColor=#36393d;" vertex="1" parent="1">
          <mxGeometry x="314" y="91" width="129" height="60" as="geometry" />
        </mxCell>
        <mxCell id="0fRe1qh-qlhCybTGsSTT-32" value="LC-MS/MS鉴定候选效应蛋白" style="whiteSpace=wrap;strokeWidth=2;fontSize=16;fillColor=#eeeeee;strokeColor=#36393d;" vertex="1" parent="1">
          <mxGeometry x="479" y="91" width="150" height="60" as="geometry" />
        </mxCell>
        <mxCell id="0fRe1qh-qlhCybTGsSTT-61" value="" style="edgeStyle=none;curved=1;rounded=0;orthogonalLoop=1;jettySize=auto;html=1;fontSize=12;startSize=8;endSize=8;entryX=0.5;entryY=1;entryDx=0;entryDy=0;" edge="1" parent="1" source="0fRe1qh-qlhCybTGsSTT-33" target="0fRe1qh-qlhCybTGsSTT-34">
          <mxGeometry relative="1" as="geometry">
            <mxPoint x="983" y="124" as="targetPoint" />
          </mxGeometry>
        </mxCell>
        <mxCell id="0fRe1qh-qlhCybTGsSTT-63" value="" style="edgeStyle=none;curved=1;rounded=0;orthogonalLoop=1;jettySize=auto;html=1;fontSize=12;startSize=8;endSize=8;" edge="1" parent="1" source="0fRe1qh-qlhCybTGsSTT-33" target="0fRe1qh-qlhCybTGsSTT-62">
          <mxGeometry relative="1" as="geometry" />
        </mxCell>
        <mxCell id="0fRe1qh-qlhCybTGsSTT-33" value="筛选效应子进行实验" style="whiteSpace=wrap;strokeWidth=2;fontSize=16;fillColor=#cdeb8b;strokeColor=#36393d;" vertex="1" parent="1">
          <mxGeometry x="669" y="91" width="156" height="60" as="geometry" />
        </mxCell>
        <mxCell id="0fRe1qh-qlhCybTGsSTT-34" value="烟草中瞬时表达" style="whiteSpace=wrap;strokeWidth=2;fontSize=16;fillColor=#fff2cc;strokeColor=#d6b656;" vertex="1" parent="1">
          <mxGeometry x="678" y="-21" width="138" height="44" as="geometry" />
        </mxCell>
        <mxCell id="0fRe1qh-qlhCybTGsSTT-35" value="观察细胞死亡和亚细胞定位" style="whiteSpace=wrap;strokeWidth=2;fontSize=16;fillColor=#b1ddf0;strokeColor=#10739e;" vertex="1" parent="1">
          <mxGeometry x="850" y="-28" width="127" height="58" as="geometry" />
        </mxCell>
        <mxCell id="0fRe1qh-qlhCybTGsSTT-65" value="" style="edgeStyle=none;curved=1;rounded=0;orthogonalLoop=1;jettySize=auto;html=1;fontSize=12;startSize=8;endSize=8;" edge="1" parent="1" source="0fRe1qh-qlhCybTGsSTT-36" target="0fRe1qh-qlhCybTGsSTT-37">
          <mxGeometry relative="1" as="geometry" />
        </mxCell>
        <mxCell id="0fRe1qh-qlhCybTGsSTT-36" value="分析信号肽和光依赖性" style="whiteSpace=wrap;strokeWidth=2;fontSize=16;fillColor=#fad7ac;strokeColor=#b46504;" vertex="1" parent="1">
          <mxGeometry x="1008" y="-29" width="112" height="59" as="geometry" />
        </mxCell>
        <mxCell id="0fRe1qh-qlhCybTGsSTT-37" value="构建信号肽缺失突变体" style="whiteSpace=wrap;strokeWidth=2;fontSize=16;fillColor=#bac8d3;strokeColor=#23445d;" vertex="1" parent="1">
          <mxGeometry x="1006.5" y="51" width="115" height="65" as="geometry" />
        </mxCell>
        <mxCell id="0fRe1qh-qlhCybTGsSTT-64" value="" style="edgeStyle=none;curved=1;rounded=0;orthogonalLoop=1;jettySize=auto;html=1;fontSize=12;startSize=8;endSize=8;" edge="1" parent="1" source="0fRe1qh-qlhCybTGsSTT-38" target="0fRe1qh-qlhCybTGsSTT-39">
          <mxGeometry relative="1" as="geometry" />
        </mxCell>
        <mxCell id="0fRe1qh-qlhCybTGsSTT-38" value="烟草中瞬时表达突变体观察蛋白酶活性和细胞死亡" style="whiteSpace=wrap;strokeWidth=2;fontSize=16;fillColor=#d0cee2;strokeColor=#56517e;" vertex="1" parent="1">
          <mxGeometry x="1146" y="44.5" width="158" height="79" as="geometry" />
        </mxCell>
        <mxCell id="0fRe1qh-qlhCybTGsSTT-39" value="评估其诱导的细胞死亡与植物免疫组分的关系" style="whiteSpace=wrap;strokeWidth=2;fontSize=16;fillColor=#fad9d5;strokeColor=#ae4132;" vertex="1" parent="1">
          <mxGeometry x="1328" y="51" width="142" height="66" as="geometry" />
        </mxCell>
        <mxCell id="0fRe1qh-qlhCybTGsSTT-40" value="评估在植物中的免疫反应" style="whiteSpace=wrap;strokeWidth=2;fontSize=16;fillColor=#fad9d5;strokeColor=#ae4132;" vertex="1" parent="1">
          <mxGeometry x="1151" y="211" width="133" height="53" as="geometry" />
        </mxCell>
        <mxCell id="0fRe1qh-qlhCybTGsSTT-42" value="评估敲除突变株的毒力" style="whiteSpace=wrap;strokeWidth=2;fontSize=16;fillColor=#b1ddf0;strokeColor=#10739e;" vertex="1" parent="1">
          <mxGeometry x="859" y="210.995" width="97" height="53" as="geometry" />
        </mxCell>
        <mxCell id="0fRe1qh-qlhCybTGsSTT-67" value="" style="edgeStyle=none;curved=1;rounded=0;orthogonalLoop=1;jettySize=auto;html=1;fontSize=12;startSize=8;endSize=8;" edge="1" parent="1" source="0fRe1qh-qlhCybTGsSTT-43" target="0fRe1qh-qlhCybTGsSTT-40">
          <mxGeometry relative="1" as="geometry" />
        </mxCell>
        <mxCell id="0fRe1qh-qlhCybTGsSTT-43" value="鉴定效应子的潜在靶蛋白和通路" style="whiteSpace=wrap;strokeWidth=2;fontSize=16;fillColor=#fad7ac;strokeColor=#b46504;" vertex="1" parent="1">
          <mxGeometry x="986" y="210.995" width="141" height="53" as="geometry" />
        </mxCell>
        <mxCell id="0fRe1qh-qlhCybTGsSTT-46" value="" style="curved=1;startArrow=none;endArrow=block;exitX=1;exitY=0.5;entryX=0;entryY=0.5;rounded=0;fontSize=16;startSize=8;endSize=8;" edge="1" parent="1" source="0fRe1qh-qlhCybTGsSTT-31" target="0fRe1qh-qlhCybTGsSTT-32">
          <mxGeometry relative="1" as="geometry">
            <Array as="points" />
          </mxGeometry>
        </mxCell>
        <mxCell id="0fRe1qh-qlhCybTGsSTT-47" value="" style="curved=1;startArrow=none;endArrow=block;exitX=1;exitY=0.5;entryX=0;entryY=0.5;rounded=0;fontSize=16;startSize=8;endSize=8;" edge="1" parent="1" source="0fRe1qh-qlhCybTGsSTT-32" target="0fRe1qh-qlhCybTGsSTT-33">
          <mxGeometry relative="1" as="geometry">
            <Array as="points" />
          </mxGeometry>
        </mxCell>
        <mxCell id="0fRe1qh-qlhCybTGsSTT-49" value="" style="curved=1;startArrow=none;endArrow=block;exitX=1;exitY=0.5;entryX=0;entryY=0.49;rounded=0;fontSize=16;startSize=8;endSize=8;" edge="1" parent="1" source="0fRe1qh-qlhCybTGsSTT-34" target="0fRe1qh-qlhCybTGsSTT-35">
          <mxGeometry relative="1" as="geometry">
            <Array as="points" />
          </mxGeometry>
        </mxCell>
        <mxCell id="0fRe1qh-qlhCybTGsSTT-50" value="" style="curved=1;startArrow=none;endArrow=block;exitX=1;exitY=0.49;entryX=0;entryY=0.5;rounded=0;fontSize=16;startSize=8;endSize=8;" edge="1" parent="1" source="0fRe1qh-qlhCybTGsSTT-35" target="0fRe1qh-qlhCybTGsSTT-36">
          <mxGeometry relative="1" as="geometry">
            <Array as="points" />
          </mxGeometry>
        </mxCell>
        <mxCell id="0fRe1qh-qlhCybTGsSTT-52" value="" style="curved=1;startArrow=none;endArrow=block;exitX=1;exitY=0.5;entryX=0;entryY=0.49;rounded=0;fontSize=16;startSize=8;endSize=8;" edge="1" parent="1" source="0fRe1qh-qlhCybTGsSTT-37" target="0fRe1qh-qlhCybTGsSTT-38">
          <mxGeometry relative="1" as="geometry">
            <Array as="points" />
          </mxGeometry>
        </mxCell>
        <mxCell id="0fRe1qh-qlhCybTGsSTT-56" value="" style="curved=1;startArrow=none;endArrow=block;entryX=0;entryY=0.51;rounded=0;fontSize=16;startSize=8;endSize=8;" edge="1" parent="1" source="0fRe1qh-qlhCybTGsSTT-62" target="0fRe1qh-qlhCybTGsSTT-42">
          <mxGeometry relative="1" as="geometry">
            <Array as="points" />
            <mxPoint x="1128" y="257.5" as="sourcePoint" />
          </mxGeometry>
        </mxCell>
        <mxCell id="0fRe1qh-qlhCybTGsSTT-57" value="" style="curved=1;startArrow=none;endArrow=block;exitX=1;exitY=0.51;entryX=0;entryY=0.5;rounded=0;fontSize=16;startSize=8;endSize=8;" edge="1" parent="1" source="0fRe1qh-qlhCybTGsSTT-42" target="0fRe1qh-qlhCybTGsSTT-43">
          <mxGeometry relative="1" as="geometry">
            <Array as="points" />
          </mxGeometry>
        </mxCell>
        <mxCell id="0fRe1qh-qlhCybTGsSTT-62" value="敲除或突变&#xa;候选效应子" style="whiteSpace=wrap;strokeWidth=2;fontSize=16;fillColor=#fff2cc;strokeColor=#d6b656;" vertex="1" parent="1">
          <mxGeometry x="669" y="210.995" width="156" height="53" as="geometry" />
        </mxCell>
      </root>
    </mxGraphModel>
  </diagram>
  <diagram id="aZDoiFWz8rXlZl7Frqk_" name="第 12 页">
    <mxGraphModel dx="66" dy="574" grid="0" gridSize="10" guides="1" tooltips="1" connect="1" arrows="1" fold="1" page="0" pageScale="1" pageWidth="1169" pageHeight="1654" math="0" shadow="0">
      <root>
        <mxCell id="0" />
        <mxCell id="1" parent="0" />
        <mxCell id="TL6PCBI4l8xtfymKEDad-2" value="输入rRNA序列" style="whiteSpace=wrap;strokeWidth=2;fontSize=16;rounded=1;glass=0;fillColor=#ffcccc;strokeColor=#36393d;" parent="1" vertex="1">
          <mxGeometry x="1191" y="119" width="159" height="49" as="geometry" />
        </mxCell>
        <mxCell id="TL6PCBI4l8xtfymKEDad-3" value="去接头的clean reads" style="whiteSpace=wrap;strokeWidth=2;fontSize=16;rounded=1;glass=0;fillColor=#cce5ff;strokeColor=#36393d;" parent="1" vertex="1">
          <mxGeometry x="1400" y="119" width="172" height="49" as="geometry" />
        </mxCell>
        <mxCell id="TL6PCBI4l8xtfymKEDad-4" value="比对确定rRNA片段" style="whiteSpace=wrap;strokeWidth=2;fontSize=16;fillColor=#fad7ac;strokeColor=#b46504;" parent="1" vertex="1">
          <mxGeometry x="1299" y="217" width="159" height="49" as="geometry" />
        </mxCell>
        <mxCell id="TL6PCBI4l8xtfymKEDad-5" value="根据指定的长度范围生成可能的oligos集合" style="whiteSpace=wrap;strokeWidth=2;fontSize=16;fillColor=#b1ddf0;strokeColor=#10739e;" parent="1" vertex="1">
          <mxGeometry x="1283" y="296" width="191" height="49" as="geometry" />
        </mxCell>
        <mxCell id="e8HBv-oz3a7UtwMmG6Yc-4" value="" style="edgeStyle=none;curved=0;rounded=0;orthogonalLoop=1;jettySize=auto;html=1;fontSize=12;startSize=8;endSize=8;entryX=0.5;entryY=0;entryDx=0;entryDy=0;exitX=1;exitY=0.5;exitDx=0;exitDy=0;" parent="1" source="TL6PCBI4l8xtfymKEDad-6" target="TL6PCBI4l8xtfymKEDad-13" edge="1">
          <mxGeometry relative="1" as="geometry">
            <mxPoint x="1663" y="485" as="targetPoint" />
            <Array as="points">
              <mxPoint x="1660" y="416" />
              <mxPoint x="1660" y="450" />
            </Array>
          </mxGeometry>
        </mxCell>
        <mxCell id="TL6PCBI4l8xtfymKEDad-6" value="对于每个样本评估每个探针的Depleting Potential" style="whiteSpace=wrap;strokeWidth=2;fontSize=16;fillColor=#e3c800;strokeColor=#B09500;fontColor=#000000;" parent="1" vertex="1">
          <mxGeometry x="1259.5" y="372" width="238" height="49" as="geometry" />
        </mxCell>
        <mxCell id="TL6PCBI4l8xtfymKEDad-8" value="计算oligo特征" style="whiteSpace=wrap;strokeWidth=2;fontSize=16;fillColor=#f0a30a;strokeColor=#BD7000;fontColor=#000000;" parent="1" vertex="1">
          <mxGeometry x="1124" y="589.5" width="130" height="44" as="geometry" />
        </mxCell>
        <mxCell id="TL6PCBI4l8xtfymKEDad-9" value="输出设计探针的结果" style="whiteSpace=wrap;strokeWidth=2;fontSize=16;fillColor=#cdeb8b;strokeColor=#36393d;" parent="1" vertex="1">
          <mxGeometry x="1386" y="785" width="190" height="49" as="geometry" />
        </mxCell>
        <mxCell id="TL6PCBI4l8xtfymKEDad-13" value="特异oligo的可去除rRNA片段数目和占总数的百分比" style="whiteSpace=wrap;strokeWidth=2;fontSize=16;fillColor=#d0cee2;strokeColor=#56517e;" parent="1" vertex="1">
          <mxGeometry x="1528.25" y="457" width="264" height="43" as="geometry" />
        </mxCell>
        <mxCell id="TL6PCBI4l8xtfymKEDad-14" value="RIsearch2预测与oligo互补的rRNA区域" style="whiteSpace=wrap;strokeWidth=2;fontSize=16;fillColor=#fad9d5;strokeColor=#ae4132;" parent="1" vertex="1">
          <mxGeometry x="1573.5" y="530" width="173.5" height="56.5" as="geometry" />
        </mxCell>
        <mxCell id="TL6PCBI4l8xtfymKEDad-15" value="最大10个核苷酸或oligo长度的1/3作为非互补长度" style="whiteSpace=wrap;strokeWidth=2;fontSize=16;fillColor=#bac8d3;strokeColor=#23445d;" parent="1" vertex="1">
          <mxGeometry x="1563.8700000000001" y="614" width="192.75" height="53" as="geometry" />
        </mxCell>
        <mxCell id="e8HBv-oz3a7UtwMmG6Yc-9" value="" style="edgeStyle=none;curved=1;rounded=0;orthogonalLoop=1;jettySize=auto;html=1;fontSize=12;startSize=8;endSize=8;" parent="1" source="TL6PCBI4l8xtfymKEDad-16" target="TL6PCBI4l8xtfymKEDad-9" edge="1">
          <mxGeometry relative="1" as="geometry">
            <mxPoint x="1660.25" y="852.53" as="targetPoint" />
          </mxGeometry>
        </mxCell>
        <mxCell id="TL6PCBI4l8xtfymKEDad-16" value="根据覆盖度和oligo长度过滤" style="whiteSpace=wrap;strokeWidth=2;fontSize=16;fillColor=#b0e3e6;strokeColor=#0e8088;" parent="1" vertex="1">
          <mxGeometry x="1557.8400000000001" y="692" width="204.81" height="47.02" as="geometry" />
        </mxCell>
        <mxCell id="TL6PCBI4l8xtfymKEDad-17" value="GC含量" style="whiteSpace=wrap;strokeWidth=2;fontSize=16;fillColor=#fff2cc;strokeColor=#d6b656;" parent="1" vertex="1">
          <mxGeometry x="1308" y="483.5" width="146" height="40" as="geometry" />
        </mxCell>
        <mxCell id="TL6PCBI4l8xtfymKEDad-18" value="目标rRNA位置" style="whiteSpace=wrap;strokeWidth=2;fontSize=16;fillColor=#d5e8d4;strokeColor=#82b366;" parent="1" vertex="1">
          <mxGeometry x="1308" y="540" width="146" height="40" as="geometry" />
        </mxCell>
        <mxCell id="TL6PCBI4l8xtfymKEDad-19" value="总体去除分数" style="whiteSpace=wrap;strokeWidth=2;fontSize=16;fillColor=#f5f5f5;strokeColor=#666666;fontColor=#333333;" parent="1" vertex="1">
          <mxGeometry x="1308" y="596" width="146" height="40" as="geometry" />
        </mxCell>
        <mxCell id="TL6PCBI4l8xtfymKEDad-20" value="RIsearch2计算MFE" style="whiteSpace=wrap;strokeWidth=2;fontSize=16;fillColor=#f8cecc;strokeColor=#b85450;" parent="1" vertex="1">
          <mxGeometry x="1308" y="652" width="162.5" height="40" as="geometry" />
        </mxCell>
        <mxCell id="e8HBv-oz3a7UtwMmG6Yc-7" value="" style="edgeStyle=none;curved=0;rounded=0;orthogonalLoop=1;jettySize=auto;html=1;fontSize=12;startSize=8;endSize=8;exitX=0.5;exitY=1;exitDx=0;exitDy=0;" parent="1" source="TL6PCBI4l8xtfymKEDad-8" target="TL6PCBI4l8xtfymKEDad-9" edge="1">
          <mxGeometry relative="1" as="geometry">
            <Array as="points">
              <mxPoint x="1189" y="810" />
            </Array>
          </mxGeometry>
        </mxCell>
        <mxCell id="TL6PCBI4l8xtfymKEDad-21" value="RNAfold预测self-folding" style="whiteSpace=wrap;strokeWidth=2;fontSize=16;fillColor=#ffe6cc;strokeColor=#d79b00;" parent="1" vertex="1">
          <mxGeometry x="1308" y="710" width="185" height="42" as="geometry" />
        </mxCell>
        <mxCell id="TL6PCBI4l8xtfymKEDad-30" value="" style="curved=0;startArrow=none;endArrow=block;exitX=0.5;exitY=0.98;entryX=0.17;entryY=0;rounded=0;fontSize=16;startSize=8;endSize=8;" parent="1" source="TL6PCBI4l8xtfymKEDad-2" target="TL6PCBI4l8xtfymKEDad-4" edge="1">
          <mxGeometry relative="1" as="geometry">
            <Array as="points">
              <mxPoint x="1271" y="192" />
            </Array>
          </mxGeometry>
        </mxCell>
        <mxCell id="TL6PCBI4l8xtfymKEDad-31" value="" style="curved=0;startArrow=none;endArrow=block;exitX=0.5;exitY=0.98;entryX=0.83;entryY=0;rounded=0;fontSize=16;startSize=8;endSize=8;" parent="1" source="TL6PCBI4l8xtfymKEDad-3" target="TL6PCBI4l8xtfymKEDad-4" edge="1">
          <mxGeometry relative="1" as="geometry">
            <Array as="points">
              <mxPoint x="1486" y="192" />
            </Array>
          </mxGeometry>
        </mxCell>
        <mxCell id="TL6PCBI4l8xtfymKEDad-32" value="" style="curved=1;startArrow=none;endArrow=block;exitX=0.5;exitY=0.99;entryX=0.5;entryY=-0.01;rounded=0;fontSize=16;startSize=8;endSize=8;" parent="1" source="TL6PCBI4l8xtfymKEDad-4" target="TL6PCBI4l8xtfymKEDad-5" edge="1">
          <mxGeometry relative="1" as="geometry">
            <Array as="points" />
          </mxGeometry>
        </mxCell>
        <mxCell id="TL6PCBI4l8xtfymKEDad-33" value="" style="curved=1;startArrow=none;endArrow=block;exitX=0.5;exitY=0.98;entryX=0.5;entryY=0;rounded=0;fontSize=16;startSize=8;endSize=8;" parent="1" source="TL6PCBI4l8xtfymKEDad-5" target="TL6PCBI4l8xtfymKEDad-6" edge="1">
          <mxGeometry relative="1" as="geometry">
            <Array as="points" />
          </mxGeometry>
        </mxCell>
        <mxCell id="TL6PCBI4l8xtfymKEDad-34" value="" style="curved=0;startArrow=none;endArrow=block;exitX=0;exitY=0.66;rounded=0;fontSize=16;startSize=8;endSize=8;" parent="1" source="TL6PCBI4l8xtfymKEDad-6" edge="1">
          <mxGeometry relative="1" as="geometry">
            <Array as="points">
              <mxPoint x="1186" y="470" />
            </Array>
            <mxPoint x="1186" y="588" as="targetPoint" />
          </mxGeometry>
        </mxCell>
        <mxCell id="TL6PCBI4l8xtfymKEDad-41" value="" style="curved=1;startArrow=none;endArrow=block;exitX=0.5;exitY=1;entryX=0.5;entryY=0;rounded=0;fontSize=16;startSize=8;endSize=8;" parent="1" source="TL6PCBI4l8xtfymKEDad-13" target="TL6PCBI4l8xtfymKEDad-14" edge="1">
          <mxGeometry relative="1" as="geometry">
            <Array as="points" />
          </mxGeometry>
        </mxCell>
        <mxCell id="TL6PCBI4l8xtfymKEDad-42" value="" style="curved=1;startArrow=none;endArrow=block;exitX=0.5;exitY=1;entryX=0.5;entryY=0;rounded=0;fontSize=16;startSize=8;endSize=8;" parent="1" source="TL6PCBI4l8xtfymKEDad-14" target="TL6PCBI4l8xtfymKEDad-15" edge="1">
          <mxGeometry relative="1" as="geometry">
            <Array as="points" />
          </mxGeometry>
        </mxCell>
        <mxCell id="TL6PCBI4l8xtfymKEDad-43" value="" style="curved=1;startArrow=none;endArrow=block;exitX=0.5;exitY=1;entryX=0.5;entryY=0;rounded=0;fontSize=16;startSize=8;endSize=8;" parent="1" source="TL6PCBI4l8xtfymKEDad-15" target="TL6PCBI4l8xtfymKEDad-16" edge="1">
          <mxGeometry relative="1" as="geometry">
            <Array as="points" />
          </mxGeometry>
        </mxCell>
        <mxCell id="e8HBv-oz3a7UtwMmG6Yc-1" value="" style="shape=curlyBracket;whiteSpace=wrap;html=1;rounded=1;labelPosition=left;verticalLabelPosition=middle;align=right;verticalAlign=middle;size=0.5;" parent="1" vertex="1">
          <mxGeometry x="1259" y="490" width="39" height="243" as="geometry" />
        </mxCell>
        <mxCell id="e8HBv-oz3a7UtwMmG6Yc-5" style="edgeStyle=none;curved=1;rounded=0;orthogonalLoop=1;jettySize=auto;html=1;exitX=1;exitY=0.5;exitDx=0;exitDy=0;fontSize=12;startSize=8;endSize=8;" parent="1" source="TL6PCBI4l8xtfymKEDad-14" target="TL6PCBI4l8xtfymKEDad-14" edge="1">
          <mxGeometry relative="1" as="geometry" />
        </mxCell>
      </root>
    </mxGraphModel>
  </diagram>
  <diagram id="jKhQjeBVx6O560mJ50OT" name="第 13 页">
    <mxGraphModel dx="755" dy="767" grid="0" gridSize="10" guides="1" tooltips="1" connect="1" arrows="1" fold="1" page="0" pageScale="1" pageWidth="1169" pageHeight="1654" math="0" shadow="0">
      <root>
        <mxCell id="0" />
        <mxCell id="1" parent="0" />
        <mxCell id="1QZDKVjp2IQIvAv7LW9g-1" value="rRNA sequences" style="whiteSpace=wrap;strokeWidth=2;fontSize=17;rounded=1;glass=0;fillColor=#ffcccc;strokeColor=#36393d;" vertex="1" parent="1">
          <mxGeometry x="584" y="49" width="150" height="49" as="geometry" />
        </mxCell>
        <mxCell id="uk0UCI0aDTsy3o92LzrR-2" value="" style="edgeStyle=none;curved=1;rounded=0;orthogonalLoop=1;jettySize=auto;html=1;fontSize=17;startSize=8;endSize=8;entryX=0.5;entryY=0;entryDx=0;entryDy=0;exitX=0.5;exitY=1;exitDx=0;exitDy=0;" edge="1" parent="1" source="1QZDKVjp2IQIvAv7LW9g-2" target="1QZDKVjp2IQIvAv7LW9g-3">
          <mxGeometry relative="1" as="geometry" />
        </mxCell>
        <mxCell id="1QZDKVjp2IQIvAv7LW9g-2" value="Clean reads" style="whiteSpace=wrap;strokeWidth=2;fontSize=17;rounded=1;glass=0;fillColor=#cce5ff;strokeColor=#36393d;" vertex="1" parent="1">
          <mxGeometry x="754" y="49" width="150" height="49" as="geometry" />
        </mxCell>
        <mxCell id="1QZDKVjp2IQIvAv7LW9g-3" value="Map to identify rRNA fragments" style="whiteSpace=wrap;strokeWidth=2;fontSize=17;fillColor=#fad7ac;strokeColor=#b46504;" vertex="1" parent="1">
          <mxGeometry x="645.5" y="146.5" width="200" height="49" as="geometry" />
        </mxCell>
        <mxCell id="1QZDKVjp2IQIvAv7LW9g-4" value="25-30nt anti-probe sets" style="whiteSpace=wrap;strokeWidth=2;fontSize=17;fillColor=#d0cee2;strokeColor=#56517e;" vertex="1" parent="1">
          <mxGeometry x="645.5" y="225" width="200" height="49" as="geometry" />
        </mxCell>
        <mxCell id="1QZDKVjp2IQIvAv7LW9g-5" value="Evaluate depleting potentials" style="whiteSpace=wrap;strokeWidth=2;fontSize=17;fillColor=#e3c800;strokeColor=#B09500;fontColor=#000000;" vertex="1" parent="1">
          <mxGeometry x="645.5" y="301.5" width="200" height="49" as="geometry" />
        </mxCell>
        <mxCell id="1QZDKVjp2IQIvAv7LW9g-6" value="" style="curved=0;startArrow=none;endArrow=block;exitX=0.5;exitY=0.98;rounded=0;fontSize=17;startSize=8;endSize=8;entryX=0.465;entryY=-0.031;entryDx=0;entryDy=0;entryPerimeter=0;" edge="1" parent="1" source="1QZDKVjp2IQIvAv7LW9g-1" target="1QZDKVjp2IQIvAv7LW9g-3">
          <mxGeometry relative="1" as="geometry">
            <Array as="points" />
            <mxPoint x="734" y="144" as="targetPoint" />
          </mxGeometry>
        </mxCell>
        <mxCell id="1QZDKVjp2IQIvAv7LW9g-8" value="" style="curved=1;startArrow=none;endArrow=block;exitX=0.5;exitY=0.99;entryX=0.5;entryY=-0.01;rounded=0;fontSize=17;startSize=8;endSize=8;" edge="1" parent="1" source="1QZDKVjp2IQIvAv7LW9g-3" target="1QZDKVjp2IQIvAv7LW9g-4">
          <mxGeometry relative="1" as="geometry">
            <Array as="points" />
          </mxGeometry>
        </mxCell>
        <mxCell id="1QZDKVjp2IQIvAv7LW9g-9" value="" style="curved=1;startArrow=none;endArrow=block;exitX=0.5;exitY=0.98;entryX=0.5;entryY=0;rounded=0;fontSize=17;startSize=8;endSize=8;" edge="1" parent="1" source="1QZDKVjp2IQIvAv7LW9g-4" target="1QZDKVjp2IQIvAv7LW9g-5">
          <mxGeometry relative="1" as="geometry">
            <Array as="points" />
          </mxGeometry>
        </mxCell>
        <mxCell id="RXGraBxyJ4mppBRplP-O-1" value="1) Compute probe features" style="whiteSpace=wrap;strokeWidth=2;fontSize=17;fillColor=#b0e3e6;strokeColor=#0e8088;" vertex="1" parent="1">
          <mxGeometry x="951" y="107" width="130" height="44" as="geometry" />
        </mxCell>
        <mxCell id="RXGraBxyJ4mppBRplP-O-2" value="GC_content" style="whiteSpace=wrap;strokeWidth=2;fontSize=17;fillColor=#fff2cc;strokeColor=#d6b656;rounded=1;" vertex="1" parent="1">
          <mxGeometry x="1135" y="1" width="146" height="40" as="geometry" />
        </mxCell>
        <mxCell id="RXGraBxyJ4mppBRplP-O-3" value="Target rRNA position" style="whiteSpace=wrap;strokeWidth=2;fontSize=17;fillColor=#d5e8d4;strokeColor=#82b366;rounded=1;" vertex="1" parent="1">
          <mxGeometry x="1135" y="57.5" width="146" height="40" as="geometry" />
        </mxCell>
        <mxCell id="RXGraBxyJ4mppBRplP-O-4" value="Overall depletion score" style="whiteSpace=wrap;strokeWidth=2;fontSize=17;fillColor=#ffe6cc;strokeColor=#d79b00;rounded=1;" vertex="1" parent="1">
          <mxGeometry x="1135" y="113.5" width="146" height="40" as="geometry" />
        </mxCell>
        <mxCell id="RXGraBxyJ4mppBRplP-O-5" value="MFE " style="whiteSpace=wrap;strokeWidth=2;fontSize=17;fillColor=#f8cecc;strokeColor=#b85450;rounded=1;" vertex="1" parent="1">
          <mxGeometry x="1135" y="169.5" width="146" height="40" as="geometry" />
        </mxCell>
        <mxCell id="RXGraBxyJ4mppBRplP-O-6" value="Self-folding structure" style="whiteSpace=wrap;strokeWidth=2;fontSize=17;fillColor=#dae8fc;strokeColor=#6c8ebf;rounded=1;" vertex="1" parent="1">
          <mxGeometry x="1135" y="227.5" width="146" height="42" as="geometry" />
        </mxCell>
        <mxCell id="RXGraBxyJ4mppBRplP-O-7" value="" style="shape=curlyBracket;whiteSpace=wrap;html=1;rounded=1;labelPosition=left;verticalLabelPosition=middle;align=right;verticalAlign=middle;size=0.5;fontSize=17;" vertex="1" parent="1">
          <mxGeometry x="1086" y="7.5" width="39" height="243" as="geometry" />
        </mxCell>
        <mxCell id="aeUlvBVq6WHwyIGRAmQp-1" value="2) Caculate percentage of depletable rRNA fragments for each probe" style="whiteSpace=wrap;strokeWidth=2;fontSize=17;fillColor=#b1ddf0;strokeColor=#10739e;" vertex="1" parent="1">
          <mxGeometry x="951" y="301.5" width="325" height="56.5" as="geometry" />
        </mxCell>
        <mxCell id="aeUlvBVq6WHwyIGRAmQp-2" value="3) Predict probe-rRNA interactions with RIsearch2" style="whiteSpace=wrap;strokeWidth=2;fontSize=17;fillColor=#bac8d3;strokeColor=#23445d;" vertex="1" parent="1">
          <mxGeometry x="954" y="379" width="325" height="56.5" as="geometry" />
        </mxCell>
        <mxCell id="aeUlvBVq6WHwyIGRAmQp-4" value="Filter based on coverage and other constraints" style="whiteSpace=wrap;strokeWidth=2;fontSize=17;fillColor=#ffcd28;strokeColor=#d79b00;gradientColor=#ffa500;" vertex="1" parent="1">
          <mxGeometry x="1345.0000000000002" y="254.48" width="204.81" height="47.02" as="geometry" />
        </mxCell>
        <mxCell id="aeUlvBVq6WHwyIGRAmQp-7" value="" style="curved=1;startArrow=none;endArrow=block;exitX=0.5;exitY=1;entryX=0.5;entryY=0;rounded=0;fontSize=17;startSize=8;endSize=8;exitDx=0;exitDy=0;" edge="1" parent="1" source="uk0UCI0aDTsy3o92LzrR-3" target="aeUlvBVq6WHwyIGRAmQp-4">
          <mxGeometry relative="1" as="geometry">
            <Array as="points" />
            <mxPoint x="1589.995" y="321.49" as="sourcePoint" />
          </mxGeometry>
        </mxCell>
        <mxCell id="aeUlvBVq6WHwyIGRAmQp-8" style="edgeStyle=none;curved=1;rounded=0;orthogonalLoop=1;jettySize=auto;html=1;exitX=1;exitY=0.5;exitDx=0;exitDy=0;fontSize=17;startSize=8;endSize=8;" edge="1" parent="1" source="aeUlvBVq6WHwyIGRAmQp-2" target="aeUlvBVq6WHwyIGRAmQp-2">
          <mxGeometry relative="1" as="geometry" />
        </mxCell>
        <mxCell id="uk0UCI0aDTsy3o92LzrR-1" value="" style="edgeStyle=elbowEdgeStyle;elbow=horizontal;endArrow=classic;html=1;curved=0;rounded=0;endSize=8;startSize=8;fontSize=17;strokeWidth=1.5;" edge="1" parent="1">
          <mxGeometry width="50" height="50" relative="1" as="geometry">
            <mxPoint x="845.5" y="328.5" as="sourcePoint" />
            <mxPoint x="948" y="130" as="targetPoint" />
          </mxGeometry>
        </mxCell>
        <mxCell id="uk0UCI0aDTsy3o92LzrR-3" value="Report designed probes" style="whiteSpace=wrap;strokeWidth=2;fontSize=17;fillColor=#e6d0de;strokeColor=#996185;rounded=0;glass=0;shadow=1;gradientColor=#d5739d;" vertex="1" parent="1">
          <mxGeometry x="1345" y="160.48" width="204.81" height="57" as="geometry" />
        </mxCell>
        <mxCell id="uk0UCI0aDTsy3o92LzrR-4" value="" style="edgeStyle=elbowEdgeStyle;elbow=horizontal;endArrow=classic;html=1;curved=0;rounded=0;endSize=8;startSize=8;fontSize=17;strokeWidth=1.5;entryX=0.007;entryY=0.637;entryDx=0;entryDy=0;entryPerimeter=0;" edge="1" parent="1" target="aeUlvBVq6WHwyIGRAmQp-1">
          <mxGeometry width="50" height="50" relative="1" as="geometry">
            <mxPoint x="845.5" y="328" as="sourcePoint" />
            <mxPoint x="915" y="419.5" as="targetPoint" />
            <Array as="points">
              <mxPoint x="876" y="403.5" />
            </Array>
          </mxGeometry>
        </mxCell>
        <mxCell id="uk0UCI0aDTsy3o92LzrR-5" value="" style="edgeStyle=elbowEdgeStyle;elbow=horizontal;endArrow=classic;html=1;curved=0;rounded=0;endSize=8;startSize=8;fontSize=17;strokeWidth=1.5;entryX=0;entryY=0.75;entryDx=0;entryDy=0;" edge="1" parent="1" target="aeUlvBVq6WHwyIGRAmQp-2">
          <mxGeometry width="50" height="50" relative="1" as="geometry">
            <mxPoint x="845.5" y="329" as="sourcePoint" />
            <mxPoint x="939" y="408" as="targetPoint" />
            <Array as="points">
              <mxPoint x="897" y="370" />
            </Array>
          </mxGeometry>
        </mxCell>
        <mxCell id="I1j-SOfU1vDiG-tgaGa3-1" value="" style="shape=curlyBracket;whiteSpace=wrap;html=1;rounded=1;flipH=1;labelPosition=right;verticalLabelPosition=middle;align=left;verticalAlign=middle;fontSize=17;" vertex="1" parent="1">
          <mxGeometry x="1293" y="7.5" width="45" height="363.5" as="geometry" />
        </mxCell>
      </root>
    </mxGraphModel>
  </diagram>
  <diagram id="DDVGBZBljjiMmxNc43o-" name="第 14 页">
    <mxGraphModel dx="66" dy="575" grid="0" gridSize="10" guides="1" tooltips="1" connect="1" arrows="1" fold="1" page="0" pageScale="1" pageWidth="1169" pageHeight="1654" math="0" shadow="0">
      <root>
        <mxCell id="0" />
        <mxCell id="1" parent="0" />
        <mxCell id="MkiVZYEHXJPHO2tSxOrd-36" value="" style="edgeStyle=none;curved=1;rounded=0;orthogonalLoop=1;jettySize=auto;html=1;fontSize=12;startSize=8;endSize=8;entryX=0.5;entryY=0;entryDx=0;entryDy=0;exitX=0.5;exitY=1;exitDx=0;exitDy=0;" edge="1" parent="1" source="MkiVZYEHXJPHO2tSxOrd-4" target="MkiVZYEHXJPHO2tSxOrd-5">
          <mxGeometry relative="1" as="geometry" />
        </mxCell>
        <mxCell id="WV1o4Smu6GvWxbMqGEPr-3" value="&lt;font style=&quot;font-size: 14px;&quot;&gt;rMATS/SUPPA&lt;/font&gt;" style="edgeLabel;html=1;align=center;verticalAlign=middle;resizable=0;points=[];fontSize=12;" vertex="1" connectable="0" parent="MkiVZYEHXJPHO2tSxOrd-36">
          <mxGeometry x="-0.1526" relative="1" as="geometry">
            <mxPoint x="-22" y="5" as="offset" />
          </mxGeometry>
        </mxCell>
        <mxCell id="MkiVZYEHXJPHO2tSxOrd-37" value="" style="edgeStyle=none;curved=1;rounded=0;orthogonalLoop=1;jettySize=auto;html=1;fontSize=12;startSize=8;endSize=8;exitX=0.5;exitY=1;exitDx=0;exitDy=0;entryX=0.5;entryY=0;entryDx=0;entryDy=0;" edge="1" parent="1" source="MkiVZYEHXJPHO2tSxOrd-4" target="MkiVZYEHXJPHO2tSxOrd-6">
          <mxGeometry relative="1" as="geometry" />
        </mxCell>
        <mxCell id="WV1o4Smu6GvWxbMqGEPr-4" value="&lt;span&gt;RSEM / featurecount&lt;/span&gt;" style="edgeLabel;html=1;align=center;verticalAlign=middle;resizable=0;points=[];fontSize=14;" vertex="1" connectable="0" parent="MkiVZYEHXJPHO2tSxOrd-37">
          <mxGeometry x="-0.0814" y="2" relative="1" as="geometry">
            <mxPoint x="20" y="4" as="offset" />
          </mxGeometry>
        </mxCell>
        <mxCell id="MkiVZYEHXJPHO2tSxOrd-4" value="RNA-seq Mapped reads" style="rounded=1;arcSize=20;strokeWidth=2;fontSize=16;fillColor=#e6d0de;strokeColor=none;gradientColor=#d5739d;" vertex="1" parent="1">
          <mxGeometry x="1066" y="149" width="193" height="49" as="geometry" />
        </mxCell>
        <mxCell id="MkiVZYEHXJPHO2tSxOrd-5" value="splicing events" style="rounded=1;arcSize=20;strokeWidth=2;fontSize=16;absoluteArcSize=0;imageAspect=1;fillColor=#d80073;fontColor=#ffffff;strokeColor=none;" vertex="1" parent="1">
          <mxGeometry x="970" y="262" width="180" height="40" as="geometry" />
        </mxCell>
        <mxCell id="MkiVZYEHXJPHO2tSxOrd-34" value="" style="edgeStyle=none;curved=1;rounded=0;orthogonalLoop=1;jettySize=auto;html=1;fontSize=12;startSize=8;endSize=8;" edge="1" parent="1" source="MkiVZYEHXJPHO2tSxOrd-6" target="MkiVZYEHXJPHO2tSxOrd-9">
          <mxGeometry relative="1" as="geometry" />
        </mxCell>
        <mxCell id="MkiVZYEHXJPHO2tSxOrd-6" value=" read count matrix" style="rounded=1;arcSize=20;strokeWidth=2;fontSize=16;absoluteArcSize=0;imageAspect=1;fillColor=#d80073;fontColor=#ffffff;strokeColor=none;" vertex="1" parent="1">
          <mxGeometry x="1189.5" y="262" width="180" height="40" as="geometry" />
        </mxCell>
        <mxCell id="MkiVZYEHXJPHO2tSxOrd-7" value="Differential splicing" style="rounded=1;arcSize=20;strokeWidth=2;fontSize=16;absoluteArcSize=0;imageAspect=1;fillColor=#d80073;fontColor=#ffffff;strokeColor=none;" vertex="1" parent="1">
          <mxGeometry x="970" y="342" width="180" height="49" as="geometry" />
        </mxCell>
        <mxCell id="MkiVZYEHXJPHO2tSxOrd-9" value="Differential expression" style="rounded=1;arcSize=20;strokeWidth=2;fontSize=16;absoluteArcSize=0;imageAspect=1;fillColor=#d80073;fontColor=#ffffff;strokeColor=none;" vertex="1" parent="1">
          <mxGeometry x="1189.5" y="342" width="180" height="49" as="geometry" />
        </mxCell>
        <mxCell id="MkiVZYEHXJPHO2tSxOrd-22" value="" style="curved=0;startArrow=none;endArrow=block;exitX=0.5;exitY=0.98;entryX=0.5;entryY=0;rounded=0;fontSize=16;startSize=8;endSize=8;" edge="1" parent="1" source="MkiVZYEHXJPHO2tSxOrd-5" target="MkiVZYEHXJPHO2tSxOrd-7">
          <mxGeometry relative="1" as="geometry">
            <Array as="points" />
          </mxGeometry>
        </mxCell>
        <mxCell id="WV1o4Smu6GvWxbMqGEPr-8" value="&lt;span style=&quot;font-size: 14px;&quot;&gt;Scripts&lt;/span&gt;" style="edgeLabel;html=1;align=center;verticalAlign=middle;resizable=0;points=[];fontSize=12;" vertex="1" connectable="0" parent="MkiVZYEHXJPHO2tSxOrd-22">
          <mxGeometry x="-0.225" y="2" relative="1" as="geometry">
            <mxPoint as="offset" />
          </mxGeometry>
        </mxCell>
        <mxCell id="MkiVZYEHXJPHO2tSxOrd-39" value="" style="edgeStyle=none;curved=1;rounded=0;orthogonalLoop=1;jettySize=auto;html=1;fontSize=12;startSize=8;endSize=8;entryX=0.5;entryY=0;entryDx=0;entryDy=0;exitX=0.5;exitY=1;exitDx=0;exitDy=0;" edge="1" parent="1" source="MkiVZYEHXJPHO2tSxOrd-41" target="MkiVZYEHXJPHO2tSxOrd-42">
          <mxGeometry relative="1" as="geometry" />
        </mxCell>
        <mxCell id="WV1o4Smu6GvWxbMqGEPr-5" value="&lt;span style=&quot;font-size: 14px;&quot;&gt;RSEM / featurecount&lt;/span&gt;" style="edgeLabel;html=1;align=center;verticalAlign=middle;resizable=0;points=[];fontSize=12;" vertex="1" connectable="0" parent="MkiVZYEHXJPHO2tSxOrd-39">
          <mxGeometry x="-0.1535" y="2" relative="1" as="geometry">
            <mxPoint x="-20" y="1" as="offset" />
          </mxGeometry>
        </mxCell>
        <mxCell id="MkiVZYEHXJPHO2tSxOrd-40" value="" style="edgeStyle=none;curved=1;rounded=0;orthogonalLoop=1;jettySize=auto;html=1;fontSize=12;startSize=8;endSize=8;exitX=0.5;exitY=1;exitDx=0;exitDy=0;entryX=0.5;entryY=0;entryDx=0;entryDy=0;" edge="1" parent="1" source="MkiVZYEHXJPHO2tSxOrd-41" target="MkiVZYEHXJPHO2tSxOrd-44">
          <mxGeometry relative="1" as="geometry" />
        </mxCell>
        <mxCell id="WV1o4Smu6GvWxbMqGEPr-6" value="&lt;span&gt;RiboTaper/RiboCode/&lt;/span&gt;&lt;div&gt;RiboTricer/CiPS&lt;/div&gt;" style="edgeLabel;html=1;align=center;verticalAlign=middle;resizable=0;points=[];fontSize=14;" vertex="1" connectable="0" parent="MkiVZYEHXJPHO2tSxOrd-40">
          <mxGeometry x="-0.0575" y="1" relative="1" as="geometry">
            <mxPoint x="34" y="3" as="offset" />
          </mxGeometry>
        </mxCell>
        <mxCell id="MkiVZYEHXJPHO2tSxOrd-41" value="Ribo-seq Mapped reads" style="rounded=1;arcSize=20;strokeWidth=2;fontSize=16;fillColor=#dae8fc;gradientColor=#7ea6e0;strokeColor=none;" vertex="1" parent="1">
          <mxGeometry x="1517" y="149" width="193" height="49" as="geometry" />
        </mxCell>
        <mxCell id="MkiVZYEHXJPHO2tSxOrd-42" value=" read count matrix" style="rounded=1;arcSize=20;strokeWidth=2;fontSize=16;absoluteArcSize=0;imageAspect=1;fillColor=#1ba1e2;fontColor=#ffffff;strokeColor=none;" vertex="1" parent="1">
          <mxGeometry x="1421" y="262" width="180" height="40" as="geometry" />
        </mxCell>
        <mxCell id="MkiVZYEHXJPHO2tSxOrd-43" value="" style="edgeStyle=none;curved=1;rounded=0;orthogonalLoop=1;jettySize=auto;html=1;fontSize=12;startSize=8;endSize=8;" edge="1" parent="1" source="MkiVZYEHXJPHO2tSxOrd-44" target="MkiVZYEHXJPHO2tSxOrd-46">
          <mxGeometry relative="1" as="geometry" />
        </mxCell>
        <mxCell id="WV1o4Smu6GvWxbMqGEPr-9" value="&lt;span style=&quot;font-size: 14px;&quot;&gt;Scripts&lt;/span&gt;" style="edgeLabel;html=1;align=center;verticalAlign=middle;resizable=0;points=[];fontSize=12;" vertex="1" connectable="0" parent="MkiVZYEHXJPHO2tSxOrd-43">
          <mxGeometry x="-0.175" y="1" relative="1" as="geometry">
            <mxPoint as="offset" />
          </mxGeometry>
        </mxCell>
        <mxCell id="MkiVZYEHXJPHO2tSxOrd-44" value="ORF discovery" style="rounded=1;arcSize=20;strokeWidth=2;fontSize=16;absoluteArcSize=0;imageAspect=1;fillColor=#1ba1e2;fontColor=#ffffff;strokeColor=none;" vertex="1" parent="1">
          <mxGeometry x="1640.5" y="262" width="180" height="40" as="geometry" />
        </mxCell>
        <mxCell id="MkiVZYEHXJPHO2tSxOrd-45" value="Differential translation &#xa;efficiency" style="rounded=1;arcSize=20;strokeWidth=2;fontSize=16;absoluteArcSize=0;imageAspect=1;fillColor=#1ba1e2;fontColor=#ffffff;strokeColor=none;" vertex="1" parent="1">
          <mxGeometry x="1421" y="343" width="180" height="48" as="geometry" />
        </mxCell>
        <mxCell id="MkiVZYEHXJPHO2tSxOrd-46" value="Differential patterns&#xa;per codon or bin" style="rounded=1;arcSize=20;strokeWidth=2;fontSize=16;absoluteArcSize=0;imageAspect=1;fillColor=#1ba1e2;fontColor=#ffffff;strokeColor=none;" vertex="1" parent="1">
          <mxGeometry x="1640.5" y="342" width="180" height="49" as="geometry" />
        </mxCell>
        <mxCell id="MkiVZYEHXJPHO2tSxOrd-47" value="" style="curved=0;startArrow=none;endArrow=block;exitX=0.5;exitY=0.98;entryX=0.5;entryY=0;rounded=0;fontSize=16;startSize=8;endSize=8;" edge="1" parent="1" source="MkiVZYEHXJPHO2tSxOrd-42" target="MkiVZYEHXJPHO2tSxOrd-45">
          <mxGeometry relative="1" as="geometry">
            <Array as="points" />
          </mxGeometry>
        </mxCell>
        <mxCell id="MkiVZYEHXJPHO2tSxOrd-55" value="1) AS-regulated uORFs" style="rounded=1;arcSize=10;strokeWidth=2;fontSize=16;absoluteArcSize=0;imageAspect=1;whiteSpace=wrap;imageHeight=24;fillColor=#009C00;fontColor=#FFFF00;strokeColor=none;" vertex="1" parent="1">
          <mxGeometry x="1003" y="468" width="200.34" height="55" as="geometry" />
        </mxCell>
        <mxCell id="MkiVZYEHXJPHO2tSxOrd-58" value="&lt;span style=&quot;color: rgb(0, 0, 0); font-family: Helvetica; font-size: 16px; font-style: normal; font-variant-ligatures: normal; font-variant-caps: normal; font-weight: 700; letter-spacing: 0.5px; orphans: 2; text-indent: 0px; text-transform: none; widows: 2; word-spacing: 0px; -webkit-text-stroke-width: 0px; white-space: pre; background-color: rgb(248, 206, 204); text-decoration-thickness: initial; text-decoration-style: initial; text-decoration-color: initial; float: none; display: inline !important;&quot;&gt;Data Integration&lt;/span&gt;" style="rounded=0;whiteSpace=wrap;html=1;fillColor=#f8cecc;strokeColor=none;align=center;" vertex="1" parent="1">
          <mxGeometry x="979" y="412" width="272" height="35" as="geometry" />
        </mxCell>
        <mxCell id="MkiVZYEHXJPHO2tSxOrd-61" value="" style="edgeStyle=elbowEdgeStyle;elbow=vertical;endArrow=classic;html=1;curved=0;rounded=0;endSize=8;startSize=8;fontSize=12;exitX=0.5;exitY=1;exitDx=0;exitDy=0;" edge="1" parent="1" source="MkiVZYEHXJPHO2tSxOrd-6">
          <mxGeometry width="50" height="50" relative="1" as="geometry">
            <mxPoint x="1277.5" y="297" as="sourcePoint" />
            <mxPoint x="1511" y="342" as="targetPoint" />
            <Array as="points">
              <mxPoint x="1342" y="322" />
            </Array>
          </mxGeometry>
        </mxCell>
        <mxCell id="MkiVZYEHXJPHO2tSxOrd-73" value="&lt;span style=&quot;color: rgb(0, 0, 0); font-family: Helvetica; font-style: normal; font-variant-ligatures: normal; font-variant-caps: normal; font-weight: 400; letter-spacing: normal; orphans: 2; text-align: center; text-indent: 0px; text-transform: none; widows: 2; word-spacing: 0px; -webkit-text-stroke-width: 0px; white-space: nowrap; background-color: rgb(255, 255, 255); text-decoration-thickness: initial; text-decoration-style: initial; text-decoration-color: initial; float: none; display: inline !important;&quot;&gt;&lt;font style=&quot;font-size: 14px;&quot;&gt;riborex/Xtail&lt;/font&gt;&lt;/span&gt;" style="text;whiteSpace=wrap;html=1;" vertex="1" parent="1">
          <mxGeometry x="1351" y="298" width="112" height="127" as="geometry" />
        </mxCell>
        <mxCell id="WV1o4Smu6GvWxbMqGEPr-1" value="2) Translation efficiency and differential uORF activity analysis " style="rounded=1;arcSize=10;strokeWidth=2;fontSize=16;absoluteArcSize=0;imageAspect=1;whiteSpace=wrap;imageHeight=24;fillColor=#009C00;fontColor=#FFFF00;strokeColor=none;" vertex="1" parent="1">
          <mxGeometry x="1232.66" y="470" width="284.34" height="55" as="geometry" />
        </mxCell>
        <mxCell id="WV1o4Smu6GvWxbMqGEPr-2" value="3) Experiment-specific uORF and motif analysis" style="rounded=1;arcSize=10;strokeWidth=2;fontSize=16;absoluteArcSize=0;imageAspect=1;whiteSpace=wrap;imageHeight=24;fillColor=#009C00;fontColor=#FFFF00;strokeColor=none;aspect=fixed;" vertex="1" parent="1">
          <mxGeometry x="1543" y="470" width="264.34" height="55" as="geometry" />
        </mxCell>
      </root>
    </mxGraphModel>
  </diagram>
</mxfile>
